<svg width="33" height="32" viewBox="0 0 33 32" fill="none" xmlns="http://www.w3.org/2000/svg">
<rect x="0.199219" width="32" height="32" rx="16" fill="#B3844F"/>
<path d="M7.3908 15.6472C12.0437 13.5774 15.1463 12.2129 16.6987 11.5536C21.1312 9.67126 22.0522 9.34427 22.6525 9.33336C22.7846 9.3311 23.0798 9.36451 23.271 9.52294C23.4325 9.65671 23.4769 9.83742 23.4982 9.96426C23.5194 10.0911 23.5459 10.38 23.5248 10.6058C23.2847 13.1826 22.2453 19.4358 21.7166 22.3219C21.4928 23.5431 21.0523 23.9526 20.6258 23.9927C19.6989 24.0797 18.9951 23.3672 18.0974 22.7664C16.6926 21.8262 15.8991 21.2409 14.5355 20.3235C12.9597 19.2632 13.9812 18.6805 14.8793 17.7281C15.1143 17.4789 19.1981 13.6863 19.2771 13.3422C19.287 13.2992 19.2962 13.1388 19.2029 13.0541C19.1096 12.9694 18.9718 12.9984 18.8724 13.0214C18.7315 13.0541 16.4874 14.5685 12.1401 17.5648C11.5031 18.0114 10.9262 18.2289 10.4092 18.2175C9.83934 18.205 8.74312 17.8886 7.9282 17.6181C6.92866 17.2863 6.13424 17.111 6.20342 16.5476C6.23945 16.2541 6.63524 15.954 7.3908 15.6472Z" fill="white"/>
</svg>
