<svg width="33" height="32" viewBox="0 0 33 32" fill="none" xmlns="http://www.w3.org/2000/svg">
<rect x="0.199219" width="32" height="32" rx="16" fill="#B3844F"/>
<path fill-rule="evenodd" clip-rule="evenodd" d="M25.5059 10.5488C25.6416 10.0919 25.5059 9.7561 24.8603 9.7561H22.7257C22.1829 9.7561 21.9328 10.0462 21.7971 10.3661C21.7971 10.3661 20.7115 13.0392 19.1736 14.7756C18.6761 15.2783 18.45 15.438 18.1786 15.438C18.0429 15.438 17.8465 15.2783 17.8465 14.8214V10.5488C17.8465 10.0004 17.689 9.7561 17.2366 9.7561H13.8822C13.5431 9.7561 13.3391 10.0106 13.3391 10.2518C13.3391 10.7717 14.1078 10.8916 14.1871 12.3537V15.5297C14.1871 16.2259 14.0627 16.3523 13.7913 16.3523C13.0676 16.3523 11.3075 13.667 10.2633 10.5946C10.0587 9.99734 9.85348 9.7561 9.30793 9.7561H7.17328C6.56339 9.7561 6.44141 10.0462 6.44141 10.3661C6.44141 10.9373 7.1652 13.7705 9.8111 17.5174C11.5752 20.0761 14.0603 21.4634 16.3218 21.4634C17.6788 21.4634 17.8465 21.1553 17.8465 20.6247V18.6906C17.8465 18.0745 17.975 17.9515 18.4046 17.9515C18.7214 17.9515 19.2641 18.1114 20.5307 19.3452C21.978 20.8072 22.2164 21.4634 23.0306 21.4634H25.1653C25.7752 21.4634 26.0801 21.1553 25.9042 20.5473C25.7118 19.9413 25.0207 19.0623 24.1038 18.0201C23.6062 17.4259 22.8599 16.7862 22.6339 16.4664C22.3172 16.0551 22.4076 15.8724 22.6339 15.507C22.6339 15.507 25.2345 11.8057 25.5059 10.549V10.5488Z" fill="white"/>
</svg>
