<svg width="33" height="32" viewBox="0 0 33 32" fill="none" xmlns="http://www.w3.org/2000/svg">
<rect x="0.199219" width="32" height="32" rx="16" fill="#B3844F"/>
<path d="M23.3649 8.80758C21.6496 7.04181 19.2784 6.08325 16.8568 6.08325C11.7108 6.08325 7.57389 10.2706 7.62434 15.3661C7.62434 16.9806 8.07839 18.5445 8.83515 19.9571L7.52344 24.7499L12.4171 23.4887C13.7793 24.2454 15.2928 24.5986 16.8063 24.5986C21.9018 24.5986 26.0388 20.4112 26.0388 15.3157C26.0388 12.8436 25.0802 10.5229 23.3649 8.80758ZM16.8568 23.0346C15.4946 23.0346 14.1324 22.6815 12.9721 21.9751L12.6694 21.8238L9.74326 22.5806L10.5 19.7049L10.2982 19.4022C8.07839 15.8202 9.13785 11.0778 12.7703 8.85803C16.4027 6.63821 21.0946 7.69767 23.3144 11.3301C25.5342 14.9625 24.4748 19.6544 20.8424 21.8742C19.682 22.631 18.2694 23.0346 16.8568 23.0346ZM21.2964 17.4346L20.7415 17.1824C20.7415 17.1824 19.9342 16.8292 19.4297 16.5769C19.3793 16.5769 19.3288 16.5265 19.2784 16.5265C19.127 16.5265 19.0261 16.5769 18.9252 16.6274C18.9252 16.6274 18.8748 16.6778 18.1685 17.4851C18.118 17.586 18.0171 17.6364 17.9162 17.6364H17.8658C17.8153 17.6364 17.7144 17.586 17.664 17.5355L17.4117 17.4346C16.8568 17.1824 16.3523 16.8796 15.9487 16.476C15.8478 16.3751 15.6964 16.2742 15.5955 16.1733C15.2424 15.8202 14.8892 15.4166 14.637 14.9625L14.5865 14.8616C14.5361 14.8112 14.5361 14.7607 14.4856 14.6598C14.4856 14.5589 14.4856 14.458 14.536 14.4076C14.536 14.4076 14.7379 14.1553 14.8892 14.004C14.9901 13.9031 15.0406 13.7517 15.1415 13.6508C15.2424 13.4995 15.2928 13.2977 15.2424 13.1463C15.1919 12.8941 14.5865 11.5319 14.4351 11.2292C14.3342 11.0778 14.2333 11.0274 14.082 10.9769H13.9306C13.8297 10.9769 13.6784 10.9769 13.527 10.9769C13.4261 10.9769 13.3252 11.0274 13.2243 11.0274L13.1739 11.0778C13.073 11.1283 12.9721 11.2292 12.8712 11.2796C12.7703 11.3805 12.7198 11.4815 12.6189 11.5824C12.2658 12.0364 12.064 12.5914 12.064 13.1463C12.064 13.5499 12.1649 13.9535 12.3162 14.3067L12.3667 14.458C12.8207 15.4166 13.4261 16.2742 14.2333 17.031L14.4351 17.2328C14.5865 17.3842 14.7379 17.4851 14.8388 17.6364C15.8982 18.5445 17.109 19.2004 18.4712 19.5535C18.6225 19.604 18.8243 19.604 18.9757 19.6544C19.127 19.6544 19.3288 19.6544 19.4802 19.6544C19.7324 19.6544 20.0351 19.5535 20.237 19.4526C20.3883 19.3517 20.4892 19.3517 20.5901 19.2508L20.691 19.1499C20.7919 19.049 20.8928 18.9986 20.9937 18.8977C21.0946 18.7968 21.1955 18.6959 21.246 18.595C21.3469 18.3932 21.3973 18.1409 21.4478 17.8887C21.4478 17.7878 21.4478 17.6364 21.4478 17.5355C21.4478 17.5355 21.3973 17.4851 21.2964 17.4346Z" fill="white"/>
</svg>
