<svg width="20" height="20" viewBox="0 0 20 20" fill="none" xmlns="http://www.w3.org/2000/svg">
<path d="M13.883 17.0863H6.21618C6.01618 17.0863 5.88281 16.953 5.88281 16.753L5.88292 2.6864C5.88292 2.4864 6.0163 2.35303 6.2163 2.35303H13.8497C14.0497 2.35303 14.1831 2.4864 14.1831 2.6864V16.753C14.2162 16.953 14.0496 17.0863 13.883 17.0863H13.883ZM6.54961 16.4197H13.5162V3.01971H6.54961V16.4197Z" fill="#B3844F"/>
<path d="M7.55017 18.0198C7.35017 18.0198 7.2168 17.8864 7.2168 17.6864V16.7531C7.2168 16.5531 7.35017 16.4197 7.55017 16.4197C7.75017 16.4197 7.88354 16.5531 7.88354 16.7531V17.6864C7.88354 17.8864 7.7168 18.0198 7.55017 18.0198Z" fill="#B3844F"/>
<path d="M12.5502 18.0198C12.3502 18.0198 12.2168 17.8864 12.2168 17.6864V16.7531C12.2168 16.5531 12.3502 16.4197 12.5502 16.4197C12.7502 16.4197 12.8835 16.5531 12.8835 16.7531V17.6864C12.8835 17.8864 12.7502 18.0198 12.5502 18.0198Z" fill="#B3844F"/>
<path d="M13.883 7.75292H6.21618C6.01618 7.75292 5.88281 7.61955 5.88281 7.41955C5.88281 7.21955 6.01618 7.08618 6.21618 7.08618H13.8496C14.0496 7.08618 14.183 7.21955 14.183 7.41955C14.2162 7.61966 14.0496 7.75292 13.883 7.75292H13.883Z" fill="#B3844F"/>
<path d="M7.68298 5.68625C7.48298 5.68625 7.34961 5.55288 7.34961 5.35288V4.78625C7.34961 4.58625 7.48298 4.45288 7.68298 4.45288C7.88298 4.45288 8.01635 4.58625 8.01635 4.78625V5.35288C8.01624 5.51962 7.88298 5.68625 7.68298 5.68625Z" fill="#B3844F"/>
<path d="M7.68298 9.91965C7.48298 9.91965 7.34961 9.78628 7.34961 9.58628V9.01965C7.34961 8.81965 7.48298 8.68628 7.68298 8.68628C7.88298 8.68628 8.01635 8.81965 8.01635 9.01965V9.58628C8.01624 9.78628 7.88298 9.91965 7.68298 9.91965Z" fill="#B3844F"/>
</svg>
