<svg width="20" height="20" viewBox="0 0 20 20" fill="none" xmlns="http://www.w3.org/2000/svg">
<path d="M14.366 14.7856H3.29939C2.66602 14.7856 2.16602 14.2856 2.16602 13.6522V11.9522C2.16602 11.3188 2.66602 10.8188 3.29939 10.8188H14.266L17.3325 9.15222C17.4992 9.05222 17.6992 9.11884 17.7992 9.28559C17.8992 9.45222 17.8325 9.65222 17.6658 9.75222L14.5324 11.4522C14.499 11.4856 14.4324 11.4856 14.3657 11.4856H3.29916C3.03253 11.4856 2.83253 11.6856 2.83253 11.9522V13.6522C2.83253 13.9188 3.03253 14.1188 3.29916 14.1188H14.2657L17.3323 12.4522C17.4989 12.3522 17.6989 12.4188 17.7989 12.5856C17.8989 12.7522 17.8323 12.9522 17.6656 13.0522L14.5321 14.7522C14.4656 14.7856 14.4324 14.7856 14.3656 14.7856H14.366Z" fill="#B3844F"/>
<path d="M3.6654 11.4856C3.4654 11.4856 3.33203 11.3522 3.33203 11.1522V8.88562C3.33203 8.68562 3.4654 8.55225 3.6654 8.55225C3.8654 8.55225 3.99877 8.68562 3.99877 8.88562V11.1522C3.99877 11.3524 3.8654 11.4856 3.6654 11.4856Z" fill="#B3844F"/>
<path d="M5.33337 11.4856C5.13337 11.4856 5 11.3522 5 11.1522V8.38562C5 8.18562 5.13337 8.05225 5.33337 8.05225C5.53337 8.05225 5.66674 8.18562 5.66674 8.38562V11.1522C5.66663 11.3524 5.5 11.4856 5.33337 11.4856Z" fill="#B3844F"/>
<path d="M6.99939 11.4856C6.79939 11.4856 6.66602 11.3522 6.66602 11.1522V8.88562C6.66602 8.68562 6.79939 8.55225 6.99939 8.55225C7.19939 8.55225 7.33276 8.68562 7.33276 8.88562V11.1522C7.33276 11.3524 7.16602 11.4856 6.99939 11.4856Z" fill="#B3844F"/>
<path d="M8.6322 11.4856C8.4322 11.4856 8.29883 11.3522 8.29883 11.1522V8.38562C8.29883 8.18562 8.4322 8.05225 8.6322 8.05225C8.8322 8.05225 8.96557 8.18562 8.96557 8.38562V11.1522C8.96546 11.3524 8.8322 11.4856 8.6322 11.4856Z" fill="#B3844F"/>
<path d="M10.3002 11.4856C10.1002 11.4856 9.9668 11.3522 9.9668 11.1522V8.88562C9.9668 8.68562 10.1002 8.55225 10.3002 8.55225C10.5002 8.55225 10.6335 8.68562 10.6335 8.88562V11.1522C10.6335 11.3524 10.5002 11.4856 10.3002 11.4856Z" fill="#B3844F"/>
<path d="M11.9662 11.4856C11.7662 11.4856 11.6328 11.3522 11.6328 11.1522V8.38562C11.6328 8.18562 11.7662 8.05225 11.9662 8.05225C12.1662 8.05225 12.2996 8.18562 12.2996 8.38562V11.1522C12.2996 11.3524 12.1329 11.4856 11.9662 11.4856Z" fill="#B3844F"/>
<path d="M13.6322 11.4856C13.4322 11.4856 13.2988 11.3522 13.2988 11.1522V8.88562C13.2988 8.68562 13.4322 8.55225 13.6322 8.55225C13.8322 8.55225 13.9656 8.68562 13.9656 8.88562V11.1522C13.9655 11.3524 13.7988 11.4856 13.6322 11.4856Z" fill="#B3844F"/>
<path d="M14.7001 7.78561C14.6001 7.78561 14.5001 7.75224 14.4335 7.68561C13.8001 6.95224 12.9001 6.48562 11.9335 6.41899C11.0669 6.35236 10.2001 6.58561 9.30013 6.81899C8.30013 7.08561 7.26676 7.35236 6.23356 7.21899C5.33356 7.08561 4.43356 6.68561 3.40019 5.88561C3.26682 5.78561 3.23356 5.55224 3.33356 5.41899C3.43356 5.28561 3.66693 5.25236 3.80019 5.35236C4.73356 6.08573 5.50019 6.45236 6.30019 6.55236C7.23356 6.68573 8.13356 6.45236 9.10019 6.18573C10.0336 5.95236 11.0002 5.68573 11.9668 5.78573C13.1001 5.88573 14.1668 6.4191 14.9002 7.28573C15.0336 7.4191 15.0002 7.65236 14.8668 7.75236C14.8668 7.78562 14.7668 7.78562 14.7002 7.78562L14.7001 7.78561Z" fill="#B3844F"/>
</svg>
