<svg width="20" height="20" viewBox="0 0 20 20" fill="none" xmlns="http://www.w3.org/2000/svg">
<path d="M15.8078 18.2199H3.489C3.31747 18.2199 3.14582 18.0865 3.14582 17.8865V17.5199C3.14582 14.4199 3.59194 11.4865 4.41547 9.01991L2.42524 6.48654C2.35665 6.38654 2.32229 6.25317 2.39088 6.11991C2.42535 6.05317 2.52829 5.95317 2.66547 5.95317H5.78812C6.88612 4.18655 8.22435 3.25317 9.63135 3.25317C13.2687 3.25317 16.1511 9.51975 16.1511 17.5197V17.8864C16.1509 18.0865 16.0138 18.2199 15.8079 18.2199L15.8078 18.2199ZM3.83224 17.5532H15.499V17.5198C15.499 10.1532 12.8225 3.9198 9.66577 3.9198C8.156 3.9198 6.9893 5.3198 6.30312 6.45317C6.23453 6.55317 6.13159 6.6198 5.99429 6.6198L3.35206 6.61991L5.03347 8.75328C5.10206 8.85328 5.13641 8.95328 5.10206 9.05328C4.27853 11.5199 3.83241 14.4533 3.83241 17.5533L3.83224 17.5532Z" fill="#B3844F"/>
<path d="M13.3024 6.61987H5.99357C5.78768 6.61987 5.65039 6.4865 5.65039 6.2865C5.65039 6.0865 5.78768 5.95312 5.99357 5.95312H13.3024C13.5083 5.95312 13.6456 6.0865 13.6456 6.2865C13.6456 6.4865 13.5083 6.61987 13.3024 6.61987Z" fill="#B3844F"/>
<path d="M15.4308 16.353H3.48966C3.28378 16.353 3.14648 16.2197 3.14648 16.0197C3.14648 15.8197 3.28378 15.6863 3.48966 15.6863H15.4308C15.6367 15.6863 15.774 15.8197 15.774 16.0197C15.774 16.2198 15.6367 16.353 15.4308 16.353Z" fill="#B3844F"/>
<path d="M9.63224 3.91977C9.42636 3.91977 9.28906 3.7864 9.28906 3.5864V2.6864C9.28906 2.4864 9.42636 2.35303 9.63224 2.35303C9.83812 2.35303 9.97542 2.4864 9.97542 2.6864V3.5864C9.9753 3.7864 9.83812 3.91977 9.63224 3.91977Z" fill="#B3844F"/>
<path d="M15.5002 13.4528C15.3973 13.4528 15.2943 13.4195 15.2258 13.3195C15.1228 13.1528 15.1572 12.9528 15.2943 12.8528C16.2208 12.2195 16.8041 11.1528 16.8041 10.0528C16.8041 8.1862 15.2256 6.65283 13.3041 6.65283C13.0982 6.65283 12.9609 6.51946 12.9609 6.31946C12.9609 6.11946 13.0982 5.98608 13.3041 5.98608C15.6032 5.98608 17.4903 7.81946 17.4903 10.0527C17.4903 11.386 16.8041 12.6527 15.7059 13.3861C15.6373 13.4196 15.5688 13.4528 15.5002 13.4528L15.5002 13.4528Z" fill="#B3844F"/>
<path d="M16.4602 14.72H15.9799C15.774 14.72 15.6367 14.5866 15.6367 14.3866C15.6367 14.1866 15.774 14.0532 15.9799 14.0532H16.4602C16.6661 14.0532 16.8034 14.1866 16.8034 14.3866C16.8034 14.5866 16.6661 14.72 16.4602 14.72Z" fill="#B3844F"/>
</svg>
