<svg width="19" height="16" viewBox="0 0 19 16" fill="none" xmlns="http://www.w3.org/2000/svg">
<path d="M2.17132 7.03846C6.94051 4.91693 10.1207 3.51828 11.7119 2.84253C16.2552 0.913104 17.1993 0.577943 17.8146 0.566758C17.9499 0.564442 18.2525 0.598686 18.4485 0.761077C18.614 0.898197 18.6596 1.08343 18.6814 1.21343C18.7032 1.34344 18.7303 1.63959 18.7087 1.871C18.4625 4.51223 17.3972 10.9218 16.8552 13.88C16.6259 15.1318 16.1744 15.5515 15.7372 15.5925C14.7872 15.6818 14.0657 14.9515 13.1456 14.3356C11.7057 13.3719 10.8923 12.772 9.49464 11.8317C7.87942 10.7449 8.9265 10.1476 9.84701 9.17139C10.0879 8.91592 14.2738 5.0285 14.3548 4.67585C14.365 4.63175 14.3744 4.46734 14.2787 4.38053C14.183 4.29372 14.0419 4.32341 13.94 4.34702C13.7956 4.38049 11.4954 5.93279 7.03935 9.00395C6.38645 9.46171 5.79506 9.68474 5.26521 9.67305C4.68108 9.66017 3.55745 9.33584 2.72215 9.05861C1.69763 8.71857 0.88335 8.53879 0.954255 7.96131C0.991187 7.66052 1.39687 7.35291 2.17132 7.03846Z" fill="white"/>
</svg>
