<svg width="20" height="12" viewBox="0 0 20 12" fill="none" xmlns="http://www.w3.org/2000/svg">
<path fill-rule="evenodd" clip-rule="evenodd" d="M19.5411 0.812527C19.6802 0.344211 19.5411 0 18.8794 0H16.6914C16.135 0 15.8787 0.297316 15.7396 0.625263C15.7396 0.625263 14.6269 3.36521 13.0505 5.145C12.5406 5.66021 12.3088 5.82395 12.0306 5.82395C11.8915 5.82395 11.6902 5.66021 11.6902 5.1919V0.812527C11.6902 0.250422 11.5288 0 11.0651 0H7.62678C7.2792 0 7.07009 0.260842 7.07009 0.508106C7.07009 1.041 7.85808 1.16384 7.93935 2.66258V5.91789C7.93935 6.63158 7.81182 6.76105 7.53363 6.76105C6.7919 6.76105 4.98773 4.00863 3.91748 0.859421C3.70774 0.247263 3.49738 0 2.93819 0H0.750175C0.125029 0 0 0.297316 0 0.625263C0 1.21074 0.741892 4.11474 3.45393 7.95537C5.26217 10.578 7.80932 12 10.1274 12C11.5183 12 11.6902 11.6842 11.6902 11.1403V9.15789C11.6902 8.52632 11.822 8.40032 12.2622 8.40032C12.587 8.40032 13.1432 8.56421 14.4415 9.82879C15.925 11.3274 16.1694 12 17.004 12H19.192C19.8171 12 20.1297 11.6842 19.9493 11.061C19.7521 10.4398 19.0438 9.53889 18.1039 8.47058C17.594 7.86158 16.8289 7.20584 16.5973 6.87805C16.2727 6.45647 16.3654 6.26921 16.5973 5.89468C16.5973 5.89468 19.2629 2.10079 19.5411 0.812685V0.812527Z" fill="white"/>
</svg>
