<svg width="20" height="20" viewBox="0 0 20 20" fill="none" xmlns="http://www.w3.org/2000/svg">
<path d="M13.6276 18.0207C13.261 18.0207 12.6276 17.9207 12.061 17.4207C11.2944 16.654 10.9944 15.3207 11.2276 13.4541C11.2276 13.4541 11.3276 11.3875 11.161 10.2541C11.0944 9.92071 10.0944 5.52065 11.6276 3.45408C12.0943 2.82071 12.761 2.45408 13.5943 2.38745C13.6276 2.38745 14.6943 2.32082 15.6276 3.28745C16.7276 4.42082 17.0943 6.48745 16.761 9.35402C16.761 9.3874 16.3276 12.3206 16.261 13.854V14.5207C16.2944 15.2207 16.2276 17.4872 13.9276 18.0207H13.6276ZM13.6609 3.02065H13.6275C12.9942 3.05402 12.4942 3.32065 12.1275 3.82065C10.7609 5.68728 11.7942 10.0541 11.7942 10.0872V10.1206C11.9942 11.354 11.8608 13.4206 11.8608 13.4872C11.6608 15.1538 11.8942 16.3537 12.4942 16.9206C13.0275 17.454 13.7275 17.354 13.7275 17.354C15.4609 16.954 15.5609 15.254 15.5275 14.554C15.5275 14.2873 15.4942 14.054 15.5275 13.8206C15.5942 12.2206 16.0275 9.38717 16.0609 9.25402C16.4609 5.9206 15.7609 4.38745 15.1275 3.7206C14.5276 3.05385 13.8276 3.0206 13.6609 3.0206V3.02065Z" fill="#B3844F"/>
<path d="M15.8935 13.8205C15.6935 13.8205 15.5601 13.6872 15.5601 13.4872C15.5601 11.6872 14.7601 10.2872 13.7267 10.2872C12.6934 10.2872 11.8601 11.7205 11.8601 13.4872C11.8601 13.6872 11.7267 13.8205 11.5267 13.8205C11.3267 13.8205 11.1934 13.6872 11.1934 13.4872C11.1934 11.3205 12.2934 9.62061 13.7267 9.62061C15.1601 9.62061 16.2267 11.2872 16.2267 13.4872C16.2268 13.6872 16.0935 13.8205 15.8935 13.8205Z" fill="#B3844F"/>
<path d="M6.16002 18.0206H5.92665C3.56002 17.4539 3.52676 15.1873 3.56002 14.5206V13.854C3.49339 12.2874 3.06002 9.38743 3.06002 9.35401C2.72665 6.45401 3.09339 4.42058 4.19339 3.25401C5.09339 2.28738 6.19339 2.35401 6.22676 2.35401C7.06013 2.42063 7.72676 2.75401 8.19339 3.42063C9.72676 5.48726 8.72676 9.88721 8.66002 10.2206C8.49339 11.3873 8.59339 13.4206 8.59339 13.4541C8.82676 15.3207 8.52676 16.6541 7.76002 17.4206C7.16002 17.9539 6.52676 18.0206 6.16002 18.0206ZM6.06002 17.3539C6.06002 17.3539 6.72665 17.4539 7.29339 16.9205C7.89339 16.3205 8.12676 15.1539 7.92676 13.5205C7.92676 13.4205 7.82676 11.3539 7.99339 10.1205V10.0871C7.99339 10.0538 9.02676 5.68715 7.66002 3.82058C7.29339 3.32058 6.82665 3.08721 6.16002 3.02058C6.12665 3.02058 5.32665 2.98721 4.66002 3.72058C4.02665 4.42058 3.32665 5.92058 3.72665 9.25401C3.76002 9.35401 4.16002 12.2206 4.22665 13.8206V14.5539C4.19339 15.2539 4.29339 16.9539 6.06002 17.3539V17.3539Z" fill="#B3844F"/>
<path d="M8.22746 13.8205C8.02746 13.8205 7.89409 13.6872 7.89409 13.4872C7.89409 11.7205 7.06072 10.2872 6.02746 10.2872C4.99409 10.2872 4.19409 11.6872 4.19409 13.4872C4.19409 13.6872 4.06072 13.8205 3.86072 13.8205C3.66072 13.8205 3.52734 13.6872 3.52734 13.4872C3.52734 11.2872 4.59397 9.62061 6.02734 9.62061C7.46072 9.62061 8.56072 11.3206 8.56072 13.4872C8.56072 13.6872 8.42746 13.8205 8.22746 13.8205Z" fill="#B3844F"/>
</svg>
