<svg width="20" height="20" viewBox="0 0 20 20" fill="none" xmlns="http://www.w3.org/2000/svg">
<path d="M16.0341 12.8865H2.66724C2.56724 12.8865 2.50062 12.8531 2.43387 12.7865C2.36724 12.7198 2.33398 12.6198 2.33398 12.5531C2.43398 8.78652 5.56741 5.68652 9.33399 5.68652C13.1006 5.68652 16.2674 8.75309 16.334 12.5531C16.334 12.6531 16.3006 12.7197 16.234 12.7865C16.2006 12.8531 16.1006 12.8865 16.034 12.8865H16.0341ZM3.0341 12.2198H15.7007C15.434 8.95327 12.6672 6.35327 9.36725 6.35327C6.06724 6.35315 3.26724 8.95315 3.0341 12.2198Z" fill="#B3844F"/>
<path d="M11.1677 6.3531C10.9677 6.3531 10.8344 6.21973 10.8344 6.01973L10.8345 5.0531H7.86791V6.01973C7.86791 6.21973 7.73454 6.3531 7.53454 6.3531C7.33454 6.3531 7.20117 6.21973 7.20117 6.01973V4.71985C7.20117 4.51985 7.33454 4.38647 7.53454 4.38647H11.168C11.368 4.38647 11.5013 4.51985 11.5013 4.71985V6.01985C11.5012 6.21985 11.3346 6.3531 11.1679 6.3531H11.1677Z" fill="#B3844F"/>
<path d="M9.33337 5.05303C9.13337 5.05303 9 4.91966 9 4.71966V2.6864C9 2.4864 9.13337 2.35303 9.33337 2.35303H17.3334C17.5334 2.35303 17.6667 2.4864 17.6667 2.6864C17.6667 2.8864 17.5334 3.01977 17.3334 3.01977H9.66651V4.71977C9.66651 4.8864 9.53325 5.05303 9.33326 5.05303H9.33337Z" fill="#B3844F"/>
<path d="M4.13415 15.8864C3.93415 15.8864 3.80078 15.7531 3.80078 15.5531V13.9864C3.80078 13.7864 3.93415 13.6531 4.13415 13.6531C4.33415 13.6531 4.46752 13.7864 4.46752 13.9864V15.5531C4.46741 15.7531 4.30078 15.8864 4.13415 15.8864Z" fill="#B3844F"/>
<path d="M7.60095 15.8864C7.40095 15.8864 7.26758 15.7531 7.26758 15.5531V13.9864C7.26758 13.7864 7.40095 13.6531 7.60095 13.6531C7.80095 13.6531 7.93432 13.7864 7.93432 13.9864V15.5531C7.93432 15.7531 7.80095 15.8864 7.60095 15.8864Z" fill="#B3844F"/>
<path d="M11.0677 15.8864C10.8677 15.8864 10.7344 15.7531 10.7344 15.5531V13.9864C10.7344 13.7864 10.8677 13.6531 11.0677 13.6531C11.2677 13.6531 11.4011 13.7864 11.4011 13.9864V15.5531C11.4011 15.7531 11.2677 15.8864 11.0677 15.8864Z" fill="#B3844F"/>
<path d="M14.5677 15.8864C14.3677 15.8864 14.2344 15.7531 14.2344 15.5531V13.9864C14.2344 13.7864 14.3677 13.6531 14.5677 13.6531C14.7677 13.6531 14.9011 13.7864 14.9011 13.9864V15.5531C14.9011 15.7531 14.7345 15.8864 14.5677 15.8864Z" fill="#B3844F"/>
<path d="M5.86657 18.02C5.66657 18.02 5.5332 17.8866 5.5332 17.6866V16.12C5.5332 15.92 5.66657 15.7866 5.86657 15.7866C6.06657 15.7866 6.19995 15.92 6.19995 16.12V17.6866C6.19995 17.8866 6.06657 18.02 5.86657 18.02Z" fill="#B3844F"/>
<path d="M9.33337 18.02C9.13337 18.02 9 17.8866 9 17.6866V16.12C9 15.92 9.13337 15.7866 9.33337 15.7866C9.53337 15.7866 9.66674 15.92 9.66674 16.12V17.6866C9.66663 17.8866 9.53337 18.02 9.33337 18.02Z" fill="#B3844F"/>
<path d="M12.8334 18.02C12.6334 18.02 12.5 17.8866 12.5 17.6866V16.12C12.5 15.92 12.6334 15.7866 12.8334 15.7866C13.0334 15.7866 13.1667 15.92 13.1667 16.12V17.6866C13.1666 17.8866 13 18.02 12.8334 18.02Z" fill="#B3844F"/>
</svg>
