<svg width="20" height="20" viewBox="0 0 20 20" fill="none" xmlns="http://www.w3.org/2000/svg">
<path d="M15.374 10.653H13.8406C13.6406 10.653 13.5073 10.5196 13.5073 10.3196C13.5073 10.1196 13.6406 9.98624 13.8406 9.98624H15.374C15.9074 9.98624 16.274 9.75287 16.3406 9.48624C16.4073 9.28624 16.274 9.15287 16.1406 9.05287L10.2741 6.38624L4.4075 9.05287C4.27413 9.15287 4.14087 9.31949 4.2075 9.48624C4.27413 9.71961 4.64087 9.98624 5.17413 9.98624H6.7075C6.9075 9.98624 7.04087 10.1196 7.04087 10.3196C7.04087 10.5196 6.9075 10.653 6.7075 10.653H5.17413C4.4075 10.653 3.74075 10.253 3.57413 9.68635C3.44075 9.25298 3.6075 8.78635 4.04075 8.48635C4.04075 8.48635 4.07413 8.45298 4.10738 8.45298L10.1408 5.71961C10.2408 5.68624 10.3408 5.68624 10.4074 5.71961L16.4409 8.45298C16.4742 8.45298 16.4742 8.48635 16.5075 8.48635C16.9409 8.78635 17.1409 9.25298 16.9741 9.68635C16.7742 10.2864 16.1409 10.653 15.3742 10.653H15.374Z" fill="#B3844F"/>
<path d="M10.2747 6.35291C10.0747 6.35291 9.94135 6.21954 9.94135 6.01954V4.58628C9.94135 4.38628 10.0747 4.25291 10.2747 4.25291C10.6081 4.25291 10.9081 3.98628 10.9081 3.61954C10.9081 3.25291 10.6081 3.01966 10.2747 3.01966C9.94135 3.01966 9.64135 3.28628 9.64135 3.65303C9.64135 3.85303 9.50798 3.9864 9.30798 3.9864C9.10798 3.9864 8.97461 3.85303 8.97461 3.65303C8.97461 2.95303 9.54124 2.35303 10.2746 2.35303C11.008 2.35303 11.5746 2.91966 11.5746 3.65303C11.5746 4.25303 11.1746 4.75303 10.608 4.8864V6.01977C10.6081 6.21966 10.4747 6.35291 10.2747 6.35291Z" fill="#B3844F"/>
<path d="M13.8415 18.0199H6.70837C6.50837 18.0199 6.375 17.8865 6.375 17.6865V9.31994C6.375 9.11994 6.50837 8.98657 6.70837 8.98657H13.8418C14.0418 8.98657 14.1752 9.11994 14.1752 9.31994V17.6865C14.1751 17.8865 14.0417 18.0199 13.8417 18.0199H13.8415ZM7.04151 17.3531H13.5081L13.5082 9.65314H7.04134L7.04151 17.3531Z" fill="#B3844F"/>
<path d="M12.7411 16.1528H7.80798C7.60798 16.1528 7.47461 16.0195 7.47461 15.8195C7.47461 15.6195 7.60798 15.4861 7.80798 15.4861H12.708C12.908 15.4861 13.0414 15.6195 13.0414 15.8195C13.0412 16.0196 12.908 16.1528 12.7412 16.1528H12.7411Z" fill="#B3844F"/>
</svg>
