<svg width="20" height="20" viewBox="0 0 20 20" fill="none" xmlns="http://www.w3.org/2000/svg">
<path d="M15.5053 17.0529H5.03845C4.83845 17.0529 4.70508 16.9195 4.70508 16.7195L4.70519 14.5197C4.70519 14.3197 4.83856 14.1863 5.03856 14.1863H15.5051C15.7051 14.1863 15.8385 14.3197 15.8385 14.5197V16.7197C15.8384 16.9197 15.7051 17.0529 15.5051 17.0529H15.5053ZM5.37188 16.3863H15.1719V14.8529H5.37188V16.3863Z" fill="#B3844F"/>
<path d="M15.5053 14.8529H5.03845C4.83845 14.8529 4.70508 14.7195 4.70508 14.5195L4.70519 2.6864C4.70519 2.4864 4.83856 2.35303 5.03856 2.35303H15.5051C15.7051 2.35303 15.8385 2.4864 15.8385 2.6864L15.8384 14.5198C15.8384 14.6865 15.7051 14.8531 15.5051 14.8531L15.5053 14.8529ZM5.37188 14.1863H15.1719V3.01971H5.37188V14.1863Z" fill="#B3844F"/>
<path d="M6.93884 18.0198C6.73884 18.0198 6.60547 17.8865 6.60547 17.6865V16.7198C6.60547 16.5198 6.73884 16.3865 6.93884 16.3865C7.13884 16.3865 7.27221 16.5198 7.27221 16.7198V17.6865C7.27221 17.8865 7.10558 18.0198 6.93884 18.0198Z" fill="#B3844F"/>
<path d="M13.6049 18.0198C13.4049 18.0198 13.2715 17.8865 13.2715 17.6865V16.7198C13.2715 16.5198 13.4049 16.3865 13.6049 16.3865C13.8049 16.3865 13.9382 16.5198 13.9382 16.7198V17.6865C13.9381 17.8865 13.8049 18.0198 13.6049 18.0198Z" fill="#B3844F"/>
<path d="M10.2728 14.8529C10.0728 14.8529 9.93945 14.7195 9.93945 14.5195V2.6864C9.93945 2.4864 10.0728 2.35303 10.2728 2.35303C10.4728 2.35303 10.6062 2.4864 10.6062 2.6864V14.5198C10.6062 14.6865 10.4728 14.8531 10.2728 14.8531V14.8529Z" fill="#B3844F"/>
<path d="M9.13806 9.1529C8.93806 9.1529 8.80469 9.01953 8.80469 8.81953V8.3529C8.80469 8.1529 8.93806 8.01953 9.13806 8.01953C9.33806 8.01953 9.47143 8.1529 9.47143 8.3529V8.81953C9.47143 9.01964 9.33806 9.1529 9.13806 9.1529Z" fill="#B3844F"/>
<path d="M11.4056 9.1529C11.2056 9.1529 11.0723 9.01953 11.0723 8.81953V8.3529C11.0723 8.1529 11.2056 8.01953 11.4056 8.01953C11.6056 8.01953 11.739 8.1529 11.739 8.3529V8.81953C11.7389 9.01964 11.6056 9.1529 11.4056 9.1529Z" fill="#B3844F"/>
</svg>
