<svg width="20" height="20" viewBox="0 0 20 20" fill="none" xmlns="http://www.w3.org/2000/svg">
<path d="M17.8125 15.1414H2.71427C2.50839 15.1414 2.37109 15.0081 2.37109 14.8081L2.37121 11.3746C2.37121 11.1746 2.5085 11.0413 2.71439 11.0413L17.8123 11.0414C18.0182 11.0414 18.1555 11.1747 18.1555 11.3747V14.8082C18.1554 14.9747 17.9839 15.1414 17.8123 15.1414L17.8125 15.1414ZM3.05751 14.4747H17.4693V11.7081H3.05751V14.4747Z" fill="#B3844F"/>
<path d="M15.3063 7.0079H14.0024C13.7965 7.0079 13.6592 6.87453 13.6592 6.67453C13.6592 6.47453 13.7965 6.34116 14.0024 6.34116H14.9632L14.9631 3.6079H5.56135V6.34127H6.41924C6.62512 6.34127 6.76241 6.47465 6.76241 6.67465C6.76241 6.87465 6.62512 7.00802 6.41924 7.00802L5.21818 7.00791C5.01229 7.00791 4.875 6.87453 4.875 6.67453V3.27453C4.875 3.07453 5.01229 2.94116 5.21818 2.94116H15.272C15.4779 2.94116 15.6152 3.07453 15.6152 3.27453V6.67453C15.6495 6.87453 15.4779 7.00791 15.3064 7.00791L15.3063 7.0079Z" fill="#B3844F"/>
<path d="M11.1549 7.00781H9.37052C9.16464 7.00781 9.02734 6.87444 9.02734 6.67444C9.02734 6.47444 9.16464 6.34106 9.37052 6.34106H11.1549C11.3608 6.34106 11.498 6.47444 11.498 6.67444C11.498 6.87444 11.3265 7.00781 11.1549 7.00781Z" fill="#B3844F"/>
<path d="M17.812 11.708H2.71378C2.61084 11.708 2.47355 11.6413 2.40496 11.5413C2.33637 11.4413 2.33637 11.308 2.40496 11.208L4.9099 6.50798C5.01284 6.34135 5.21872 6.2746 5.35602 6.3746C5.52755 6.4746 5.59625 6.6746 5.49331 6.80798L3.29719 11.0414H17.2287L14.9983 6.8414C14.8954 6.67478 14.964 6.47478 15.1356 6.40803C15.3071 6.30803 15.513 6.37466 15.5817 6.5414L18.0867 11.2414C18.1553 11.3414 18.121 11.4748 18.0867 11.5748C18.0178 11.6747 17.9149 11.708 17.812 11.708L17.812 11.708Z" fill="#B3844F"/>
<path d="M4.90958 16.4745C4.7037 16.4745 4.56641 16.3411 4.56641 16.1411V14.8077C4.56641 14.6077 4.7037 14.4744 4.90958 14.4744C5.11547 14.4744 5.25276 14.6077 5.25276 14.8077V16.1411C5.25276 16.3412 5.11547 16.4745 4.90958 16.4745Z" fill="#B3844F"/>
<path d="M15.6166 16.4745C15.4107 16.4745 15.2734 16.3411 15.2734 16.1411V14.8077C15.2734 14.6077 15.4107 14.4744 15.6166 14.4744C15.8225 14.4744 15.9598 14.6077 15.9598 14.8077V16.1411C15.9598 16.3412 15.7881 16.4745 15.6166 16.4745Z" fill="#B3844F"/>
<path d="M9.37041 7.77441H6.65958C6.4537 7.77441 6.31641 7.64104 6.31641 7.44104V5.94104C6.31641 5.74104 6.4537 5.60767 6.65958 5.60767H9.37041C9.57629 5.60767 9.71358 5.74104 9.71358 5.94104V7.44104C9.71347 7.60778 9.57629 7.77441 9.37041 7.77441ZM7.00276 7.10778H9.02723V6.27441H7.00276V7.10778Z" fill="#B3844F"/>
<path d="M13.8665 7.77441H11.1557C10.9498 7.77441 10.8125 7.64104 10.8125 7.44104V5.94104C10.8125 5.74104 10.9498 5.60767 11.1557 5.60767H13.8665C14.0724 5.60767 14.2097 5.74104 14.2097 5.94104V7.44104C14.2097 7.60778 14.0724 7.77441 13.8665 7.77441ZM11.4989 7.10778H13.5233V6.27441H11.4989V7.10778Z" fill="#B3844F"/>
</svg>
