<svg width="20" height="20" viewBox="0 0 20 20" fill="none" xmlns="http://www.w3.org/2000/svg">
<path d="M17.6869 15.0391H2.68689C2.48689 15.0391 2.35352 14.9058 2.35352 14.7058V5.03918C2.35352 4.83918 2.48689 4.70581 2.68689 4.70581H17.6869C17.8869 4.70581 18.0203 4.83918 18.0203 5.03918V14.7392C18.0203 14.9059 17.8869 15.0392 17.6869 15.0392V15.0391ZM3.02032 14.3725H17.3537L17.3536 5.3725H3.0202L3.02032 14.3725Z" fill="#B3844F"/>
<path d="M14.2203 13.6059H4.18689C3.98689 13.6059 3.85352 13.4725 3.85352 13.2725V6.47253C3.85352 6.27253 3.98689 6.13916 4.18689 6.13916H14.2203C14.4203 6.13916 14.5537 6.27253 14.5537 6.47253V13.2391C14.5536 13.4391 14.4203 13.6058 14.2203 13.6058V13.6059ZM4.52032 12.9392H13.8869V6.80602H4.52032V12.9392Z" fill="#B3844F"/>
<path d="M16.3542 9.73901H15.5209C15.3209 9.73901 15.1875 9.60564 15.1875 9.40564C15.1875 9.20564 15.3209 9.07227 15.5209 9.07227H16.3542C16.5542 9.07227 16.6876 9.20564 16.6876 9.40564C16.6876 9.60575 16.5542 9.73901 16.3542 9.73901Z" fill="#B3844F"/>
<path d="M16.3542 11.206H15.5209C15.3209 11.206 15.1875 11.0727 15.1875 10.8727C15.1875 10.6727 15.3209 10.5393 15.5209 10.5393H16.3542C16.5542 10.5393 16.6876 10.6727 16.6876 10.8727C16.6876 11.0727 16.5542 11.206 16.3542 11.206Z" fill="#B3844F"/>
<path d="M16.3542 12.6392H15.5209C15.3209 12.6392 15.1875 12.5058 15.1875 12.3058C15.1875 12.1058 15.3209 11.9724 15.5209 11.9724H16.3542C16.5542 11.9724 16.6876 12.1058 16.6876 12.3058C16.6876 12.5059 16.5542 12.6392 16.3542 12.6392Z" fill="#B3844F"/>
<path d="M17.6869 15.0391H2.68689C2.48689 15.0391 2.35352 14.9058 2.35352 14.7058V5.03918C2.35352 4.83918 2.48689 4.70581 2.68689 4.70581H17.6869C17.8869 4.70581 18.0203 4.83918 18.0203 5.03918V14.7392C18.0203 14.9059 17.8869 15.0392 17.6869 15.0392V15.0391ZM3.02032 14.3725H17.3537L17.3536 5.3725H3.0202L3.02032 14.3725Z" fill="#B3844F"/>
<path d="M17.6869 15.0391H2.68689C2.48689 15.0391 2.35352 14.9058 2.35352 14.7058V5.03918C2.35352 4.83918 2.48689 4.70581 2.68689 4.70581H17.6869C17.8869 4.70581 18.0203 4.83918 18.0203 5.03918V14.7392C18.0203 14.9059 17.8869 15.0392 17.6869 15.0392V15.0391ZM3.02032 14.3725H17.3537L17.3536 5.3725H3.0202L3.02032 14.3725Z" fill="#B3844F"/>
<path d="M12.7201 11.639C12.5201 11.639 12.3867 11.5056 12.3867 11.3056V8.40564C12.3867 8.20564 12.5201 8.07227 12.7201 8.07227C12.9201 8.07227 13.0535 8.20564 13.0535 8.40564V11.3056C13.0533 11.5057 12.8867 11.639 12.7201 11.639Z" fill="#B3844F"/>
</svg>
