<svg width="70" height="54" viewBox="0 0 70 54" fill="none" xmlns="http://www.w3.org/2000/svg">
<g clip-path="url(#clip0_89_3739)">
<path d="M53.9309 14.5272C53.6011 13.6574 53.3812 12.8092 52.1941 12.8092C52.216 12.5482 52.238 12.3525 52.26 12.1568C52.3699 11.2869 51.8643 10.7432 50.9629 10.8519C50.5672 10.8954 50.1713 11.0911 49.7976 11.2216C49.3139 11.3956 48.8302 11.5913 48.3905 11.7435C48.3905 11.3086 48.4345 11.0042 48.3905 10.7215C48.1927 9.72105 47.5111 9.06864 46.7196 8.5032C45.7302 7.80729 45.1586 6.82866 44.7409 5.54557C46.3018 5.6543 47.687 5.78479 49.0721 5.82829C49.3359 5.82829 49.7316 5.6543 49.8855 5.43683C50.4792 4.61043 50.3033 4.19723 49.5338 3.56656C48.6544 2.82716 47.3572 2.80541 46.6316 1.71804C46.3019 1.21785 45.4004 1.10911 44.7189 0.782904C44.7409 0.717662 44.7849 0.521936 44.8508 0.239221C44.4991 0.434946 44.2573 0.587178 43.9934 0.739409C43.8835 0.521936 43.7955 0.369704 43.6196 0C43.4438 1.41358 42.4324 1.71804 41.421 2.066C41.6849 2.23997 41.8169 2.32697 42.0147 2.45744C41.4431 2.82716 40.9374 3.17511 40.4097 3.50132C40.4757 3.54481 40.5416 3.5883 40.5636 3.61006C40.2778 4.41471 40.0359 5.08888 39.7941 5.78479C40.1679 6.111 40.1239 7.43759 39.7941 8.06826C39.2885 7.82904 38.7828 7.61157 38.2991 7.3506C38.1012 7.24186 37.9474 7.06788 37.7934 6.9374C37.9693 6.76341 38.1232 6.58944 38.2991 6.41546C38.5409 6.17624 38.8048 5.95876 39.0686 5.74129C38.7828 5.50208 38.497 5.24111 38.2111 5.02363C37.9693 4.8279 37.5515 4.69742 37.4856 4.4582C37.3317 3.89277 36.8921 3.71879 36.4962 3.82753C35.9686 3.97976 35.1332 4.32772 35.0892 4.67567C35.0012 5.37159 34.8693 5.80653 33.9899 5.98052C35.7267 5.76304 35.2651 7.37234 35.8147 7.80729C35.0892 8.5467 34.4296 9.28611 33.6822 9.93853C33.1984 10.3518 32.6267 10.678 32.0332 10.8519C30.9779 11.1564 30.1425 10.9389 29.1971 10.1125C26.8885 8.1335 24.3602 6.4372 21.9198 4.65393C21.7658 4.5452 21.59 4.47995 21.436 4.39296C21.5021 4.67567 21.6559 4.80616 21.8098 4.93664C24.0524 6.76341 26.2949 8.5902 28.5375 10.417C28.9112 10.7215 29.285 11.0042 29.219 11.5913C29.1971 11.787 29.5048 12.135 29.7247 12.1785C30.2303 12.2655 30.4502 12.483 30.4282 12.9831C30.4282 13.1354 30.5822 13.3093 30.6921 13.4398C30.9339 13.7226 31.2197 13.9618 31.4176 14.2663C31.7913 14.8534 32.1211 15.4624 32.5169 16.1365C32.7587 15.8756 32.8906 15.6798 33.0885 15.5494C33.7041 15.0709 33.6161 14.6577 33.0665 14.1793C32.5608 13.7443 32.1431 13.2223 31.6814 12.7439C32.9565 12.8962 33.924 12.309 34.8693 11.7C34.9793 11.6348 35.1111 11.5696 35.2211 11.5043C35.5729 11.3086 35.7488 11.3956 36.0346 11.7218C36.7821 12.6352 37.0459 13.6574 37.0899 14.8099C37.1339 16.5497 36.958 16.876 35.2871 17.3544C35.2211 17.3761 35.1551 17.4414 35.0012 17.5283C35.353 17.898 35.6388 18.2025 35.8587 18.4418C35.353 19.3334 34.8474 20.2033 34.3856 21.0731C34.1438 21.5299 33.858 21.7039 33.3524 21.8343C32.6267 22.0083 31.8793 22.3128 31.3077 22.7912C30.3623 23.5741 29.5488 24.5092 28.6474 25.4009C29.0651 25.2922 29.5488 25.1834 30.0105 25.0747C30.0545 25.1399 30.1204 25.2269 30.1644 25.2922C29.3729 25.9445 28.5814 26.6188 27.7899 27.2711C27.812 27.3146 27.8339 27.3799 27.8559 27.4234C28.3836 27.1842 28.9332 26.9667 29.4608 26.7275C28.0317 27.88 27.1743 29.3806 26.7346 31.1205C26.4488 32.2078 25.9211 33.1212 24.8219 33.7953C25.0197 33.8606 25.1297 33.9258 25.2615 33.9258C26.8665 34.0345 27.9439 33.4474 28.6474 31.9903C28.9332 31.4249 29.1971 30.8594 29.4829 30.2505C29.8127 30.9029 30.0985 31.4684 30.3843 32.0121C30.4722 31.9903 30.5382 31.9468 30.6261 31.9251C30.2963 30.8159 29.9885 29.7286 30.6481 28.6195C31.5714 27.0972 32.4289 25.5314 32.231 23.6611C32.231 23.5741 32.231 23.4654 32.275 23.4219C32.5169 23.2044 32.7587 23.0304 33.0005 22.8129C33.1105 23.0739 33.2644 23.3349 33.3303 23.5959C33.5062 24.4005 33.4183 25.3356 33.836 25.988C34.4736 27.0102 34.4077 27.8583 33.858 28.7935C33.6601 29.1196 33.5062 29.4676 33.2863 29.7721C32.8466 30.381 32.8466 31.0116 33.0005 31.7076C33.2424 32.9255 33.4842 34.165 33.5502 35.4046C33.6382 36.7095 34.2537 37.3401 35.7928 37.2749C35.6388 36.9487 35.5289 36.666 35.353 36.4268C34.2317 34.7088 33.7041 32.9037 34.6495 30.9899C35.331 29.5764 36.2544 28.2933 37.0459 26.9449C37.9034 27.3581 37.9693 27.9018 37.5296 28.5543C37.2219 29.0327 36.8921 29.5112 36.5402 29.9461C36.1226 30.4462 36.1445 30.8594 36.6062 31.2944C37.1339 31.7729 37.6395 32.273 38.1452 32.7733C39.1126 33.7518 39.7941 34.9045 40.3657 36.2746C40.8494 36.3616 41.4871 36.492 42.1027 36.6008C42.1465 36.5355 42.1686 36.4703 42.2126 36.405C41.509 35.3611 40.8054 34.3173 40.058 33.3169C39.7282 32.8602 39.2664 32.4905 38.8927 32.0555C38.2551 31.3162 38.1892 30.7507 38.8927 30.1201C40.0799 29.0762 40.7835 27.7495 41.531 26.423C41.9267 25.7271 42.0806 25.0747 41.7069 24.357C41.2452 23.4654 41.531 22.7477 42.2345 22.0518C42.6523 22.6389 43.07 22.7259 43.5316 22.117C43.6196 22.0083 43.8835 22.0518 44.0154 21.9648C44.3232 21.8126 44.6309 21.6386 44.8728 21.4211C45.0927 21.2036 45.2246 20.8992 45.4004 20.6382C45.5763 20.3773 45.7523 20.1598 45.9941 19.8335C45.6424 19.7465 45.4444 19.703 45.0487 19.5943C46.06 18.42 46.9835 17.3544 47.753 16.4844C48.4785 16.1583 49.0061 15.919 49.5117 15.6798V16.9412C49.5778 16.9847 49.6437 17.0499 49.7097 17.0934C50.2374 16.6584 50.765 16.2017 51.3146 15.8321C51.9961 15.3971 52.304 14.8099 52.1941 13.9836C53.1834 14.5489 53.821 16.8107 53.3153 17.7241C52.8096 18.681 53.0735 19.2246 54.2827 19.5073C54.4365 17.898 54.5905 16.2235 53.9309 14.5272ZM50.4132 13.3528C49.9735 13.3963 49.5338 13.5268 48.9402 13.6356C49.6877 13.0049 50.3252 12.4612 51.0069 11.874C51.5125 13.0919 51.4245 13.2441 50.4132 13.3528Z" fill="#0B382B"/>
<path d="M27.3505 52.0198C26.691 49.5841 25.9874 47.1483 25.3499 44.7127C25.2619 44.3865 25.3718 43.9733 25.4598 43.647C25.7456 42.5815 26.2293 41.5376 26.3612 40.4719C26.5591 38.7757 26.3392 37.1011 25.3279 35.6223C24.4924 34.4045 23.3932 34.2087 22.14 34.9916C22.052 35.0351 21.9641 35.0786 21.8102 35.1656C21.7002 34.8177 21.6122 34.535 21.5244 34.2087C20.535 34.6002 19.6116 34.9699 18.6222 35.3613C19.3478 41.3636 19.1499 47.3659 18.2705 53.3681C19.4357 53.1941 20.4691 53.0419 21.6562 52.8679C21.8542 50.541 22.074 48.1923 22.2718 45.8218C22.3598 45.8218 22.4697 45.8218 22.5577 45.8218C23.0853 48.4967 23.613 51.1934 24.1627 53.9771C25.3499 53.5857 26.4271 53.2376 27.5704 52.8462C27.4824 52.4765 27.4165 52.259 27.3505 52.0198ZM22.052 43.1251C22.052 41.5593 22.03 40.1892 22.074 38.7974C22.074 38.6017 22.2499 38.232 22.3598 38.232C22.5797 38.232 22.8874 38.3407 23.0413 38.5147C23.9208 39.5369 23.4371 42.1682 22.052 43.1251Z" fill="#0B382B"/>
<path d="M61.4278 52.954C60.3944 53.128 59.4711 53.302 58.4817 53.476C58.4817 51.6709 58.5257 49.9094 58.4596 48.1479C58.4377 47.4738 58.3058 46.7995 58.0639 46.1689C57.932 45.7992 57.5143 45.5383 57.2285 45.2337C57.1406 45.2772 57.0526 45.3425 56.9867 45.3859C56.9867 47.7782 56.9867 50.1704 56.9867 52.5844C55.9533 52.8236 54.9639 53.0628 53.9307 53.302C53.9307 47.0823 53.9307 40.8626 53.9307 34.5776C54.942 34.4906 55.9533 34.4036 57.0307 34.3167C57.0307 36.6871 57.0307 39.0575 57.0307 41.428C58.6795 40.7756 59.537 41.0366 60.3065 42.7546C60.7902 43.842 61.12 45.0163 61.3178 46.1689C61.7136 48.3871 61.6696 50.6271 61.4278 52.954Z" fill="#0B382B"/>
<path d="M0.593613 53.1727C0.747513 50.5195 0.901413 47.9751 1.0773 45.4307C1.12127 44.7348 1.09929 44.1693 0 44.2998C1.89077 41.2551 0.725528 38.1018 0.747513 34.9484C2.6163 34.557 4.48508 34.557 6.37585 34.7309C6.52974 34.7527 6.68364 34.9701 6.77159 35.1224C6.83755 35.2312 6.81556 35.3834 6.83755 35.5139C7.07939 37.7103 6.88152 37.9061 4.72692 37.8843C4.59501 37.8843 4.46309 37.8843 4.26522 37.8843C4.26522 38.9065 4.26522 39.885 4.26522 40.9289C5.07869 40.9289 5.84819 40.9507 6.5957 40.9289C7.10138 40.9072 7.38718 41.0377 7.38718 41.5814C7.38718 41.6249 7.40917 41.6901 7.40917 41.7336C7.80492 44.0388 7.673 44.191 5.38649 44.3215C5.0567 44.3433 4.74891 44.365 4.37515 44.4085C4.2872 46.1265 4.22125 47.7793 4.1553 49.5191C5.34252 49.5191 6.48577 49.5191 7.84889 49.5191C7.60704 50.6717 7.40917 51.6939 7.14535 52.6942C7.12336 52.8248 6.88152 52.977 6.72762 53.0205C4.66096 53.3467 2.63829 53.6511 0.593613 53.1727Z" fill="#0B382B"/>
<path d="M37.8159 53.3027C37.8159 49.1924 37.8159 45.2345 37.8159 41.2546C38.7834 40.9502 39.6847 40.6892 40.6741 40.3848C40.6741 40.9719 40.6741 41.5156 40.6741 42.2551C40.9599 41.8636 41.1358 41.6461 41.2897 41.4286C42.0152 40.4935 42.8287 40.45 43.4662 41.4504C43.9939 42.2768 44.4337 43.2336 44.6974 44.1688C45.489 46.8872 45.5549 49.6926 45.3351 52.498C45.3131 52.759 45.0053 53.1287 44.7635 53.194C44.0379 53.4114 43.2684 53.4984 42.389 53.6724C42.389 53.2157 42.4109 52.8677 42.389 52.5198C42.301 50.5843 42.2131 48.6705 42.1251 46.735C42.1251 46.6045 42.1032 46.4522 42.0592 46.3435C41.8833 45.8868 41.8833 45.191 41.1798 45.2779C41.0039 45.2997 40.828 46.0173 40.806 46.4305C40.74 48.4096 40.7181 50.3885 40.7181 52.3893C40.7181 52.933 40.5642 53.1722 39.9926 53.1722C39.289 53.194 38.5635 53.2592 37.8159 53.3027Z" fill="#0B382B"/>
<path d="M36.3198 47.8227C36.2318 46.9311 36.1219 46.0177 35.8141 45.1914C35.4404 44.1257 34.9786 43.06 34.3411 42.125C33.6156 41.0593 32.4503 40.6461 31.1531 40.9288C30.8673 40.9941 30.4716 41.2985 30.4276 41.5377C30.2957 42.4077 30.2737 43.2993 30.2298 44.1692C31.6588 44.0822 32.1425 44.3432 32.5163 45.4088C32.3624 45.4306 32.2084 45.474 32.0545 45.5175C29.1085 46.1482 27.5255 48.9101 28.5149 51.759C29.1305 53.5423 30.8014 54.0425 32.3184 52.8898C32.6482 52.6289 32.9779 52.3462 33.3737 51.9982C33.4177 52.5419 33.4617 52.9768 33.5056 53.4336C34.561 53.1509 35.5283 52.8898 36.6276 52.5854C36.5176 50.9543 36.4737 49.3885 36.3198 47.8227ZM33.0439 50.3454C32.7801 50.3454 32.4283 50.302 32.2305 50.128C31.4389 49.3885 31.8786 47.6487 33.0879 47.1486C33.1759 48.1054 33.2637 48.9971 33.3077 49.867C33.3298 50.0193 33.1319 50.3454 33.0439 50.3454Z" fill="#0B382B"/>
<path d="M69.9802 47.0395C69.9802 46.6046 70.0241 46.1697 69.9802 45.7347C69.8263 44.2559 69.5185 42.8206 68.5072 41.6462C67.5837 40.5806 66.2647 40.3848 65.1214 41.233C64.6377 41.6027 64.154 42.0811 63.8682 42.6031C62.3512 45.4954 62.3731 48.4531 63.6703 51.4107C64.176 52.5416 65.0554 53.3027 66.4185 53.3245C67.7816 53.3245 68.5731 52.4764 69.1448 51.389C69.8483 50.0189 70.0681 48.5401 69.9802 47.0395ZM67.1001 48.5401C66.9902 48.7794 66.5724 48.9968 66.3306 48.9968C66.0668 48.9751 65.737 48.714 65.6051 48.4531C65.4291 48.1052 65.4291 47.6702 65.3412 47.2571C65.4291 46.822 65.4512 46.3871 65.6051 45.9957C65.715 45.7347 66.0448 45.4519 66.2866 45.4302C66.5505 45.4085 66.9462 45.6478 67.0561 45.8652C67.5178 46.7568 67.5178 47.6702 67.1001 48.5401Z" fill="#0B382B"/>
<path d="M12.1576 53.5201C11.1682 53.4766 10.2009 53.4331 9.05762 53.3895C9.05762 52.1934 9.03564 51.0626 9.05762 49.9317C9.12358 45.082 9.21152 40.2541 9.27748 35.4045C9.27748 34.7738 9.51932 34.5564 10.1129 34.4911C10.8165 34.4259 11.52 34.2518 12.1576 34.1213C12.1576 40.5586 12.1576 46.974 12.1576 53.5201Z" fill="#0B382B"/>
<path d="M51.9743 44.495C50.941 44.147 50.2814 44.4297 49.9296 45.4519C49.468 46.7567 49.424 48.0616 50.0396 49.3446C50.5233 50.3668 51.1608 50.693 52.3041 50.606C52.3041 51.2149 52.37 51.8456 52.2821 52.4545C52.2382 52.7589 51.9084 53.107 51.6226 53.3027C50.5012 54.0203 49.0722 53.6941 48.0829 52.5632C47.1155 51.4324 46.7637 50.0841 46.6757 48.6487C46.5218 46.5175 46.7857 44.4732 48.0389 42.6465C48.7864 41.5591 49.8197 40.8632 51.2268 40.9937C52.3041 41.0807 52.568 41.4938 52.3481 42.5377C52.1942 43.1684 52.1062 43.8426 51.9743 44.495Z" fill="#0B382B"/>
<path d="M69.6502 37.6013C69.3423 37.0359 69.0786 36.6009 68.8807 36.1225C68.2211 34.5132 67.6714 32.8604 66.9459 31.2728C65.187 27.3582 62.5928 23.9874 59.4928 21.0299C58.5254 20.1164 57.602 19.1378 56.6566 18.1809C56.4367 17.9635 56.2389 17.7024 55.9751 17.3762C60.702 18.3549 71.453 34.1217 69.6502 37.6013Z" fill="#0B382B"/>
<path d="M9.146 20.8342C9.21196 20.7254 9.23393 20.5949 9.32188 20.508C14.1368 15.9845 19.7431 12.9834 26.2509 11.6351C26.4927 11.5916 26.7565 11.6351 27.0204 11.6351C27.0423 11.7003 27.0643 11.7873 27.1083 11.8526C26.8884 11.983 26.6686 12.1788 26.4268 12.2222C19.9629 13.5054 14.4006 16.5282 9.40982 20.7037C9.34386 20.7689 9.23393 20.7907 9.146 20.8342Z" fill="#0B382B"/>
<path d="M9.14569 20.834C7.82654 22.4216 6.48542 23.9874 5.23224 25.5967C4.24288 26.8798 3.34147 28.2498 2.24219 29.5329C2.33013 29.3372 2.3741 29.1415 2.48402 28.9458C4.06699 25.8142 6.39748 23.2697 8.94782 20.8993C8.9698 20.8558 9.07973 20.8558 9.14569 20.834Z" fill="#0B382B"/>
</g>
<defs>
<clipPath id="clip0_89_3739">
<rect width="70" height="54" fill="white"/>
</clipPath>
</defs>
</svg>
