<svg width="100" height="78" viewBox="0 0 100 78" fill="none" xmlns="http://www.w3.org/2000/svg">
<g clip-path="url(#clip0_7_543)">
<path d="M77.0441 20.9837C76.5729 19.7273 76.2588 18.5022 74.5629 18.5022C74.5942 18.1252 74.6256 17.8425 74.6571 17.5598C74.8141 16.3033 74.0918 15.5179 72.804 15.6749C72.2387 15.7378 71.6732 16.0205 71.1393 16.209C70.4483 16.4603 69.7574 16.743 69.1292 16.9629C69.1292 16.3347 69.192 15.8949 69.1292 15.4866C68.8466 14.0415 67.873 13.0991 66.7422 12.2824C65.3288 11.2772 64.5122 9.86362 63.9155 8.01026C66.1454 8.16733 68.1241 8.35581 70.1028 8.41863C70.4798 8.41863 71.0451 8.16733 71.2649 7.8532C72.113 6.65951 71.8617 6.06267 70.7625 5.1517C69.5062 4.08367 67.653 4.05225 66.6165 2.48161C66.1454 1.75911 64.8576 1.60205 63.884 1.13086C63.9155 1.03662 63.9783 0.753907 64.0725 0.345541C63.57 0.628256 63.2246 0.848146 62.8476 1.06804C62.6906 0.753907 62.5649 0.534017 62.3136 0C62.0625 2.04184 60.6176 2.48161 59.1728 2.98422C59.5498 3.23551 59.7383 3.36117 60.0209 3.54964C59.2043 4.08367 58.4818 4.58627 57.7281 5.05746C57.8224 5.12028 57.9165 5.18311 57.9479 5.21453C57.5396 6.3768 57.1941 7.3506 56.8486 8.35581C57.3826 8.82701 57.3197 10.7432 56.8486 11.6541C56.1263 11.3086 55.4039 10.9945 54.7129 10.6175C54.4302 10.4605 54.2104 10.2092 53.9904 10.0207C54.2418 9.76938 54.4616 9.51808 54.7129 9.26678C55.0584 8.92123 55.4353 8.6071 55.8122 8.29297C55.4039 7.94744 54.9955 7.57049 54.5872 7.25636C54.2418 6.97364 53.645 6.78517 53.5508 6.43962C53.331 5.6229 52.7028 5.37159 52.1374 5.52865C51.3836 5.74854 50.1901 6.25115 50.1273 6.75375C50.0017 7.75896 49.8132 8.38722 48.5569 8.63852C51.0381 8.32439 50.3786 10.6489 51.1638 11.2772C50.1273 12.3452 49.1851 13.4133 48.1173 14.3557C47.4262 14.9525 46.6095 15.4237 45.7616 15.6749C44.254 16.1148 43.0606 15.8006 41.71 14.607C38.412 11.7484 34.8002 9.29818 31.3139 6.72235C31.0939 6.56528 30.8428 6.47104 30.6228 6.34538C30.7171 6.75375 30.9369 6.94223 31.1568 7.1307C34.3604 9.76938 37.5641 12.4081 40.7677 15.0467C41.3017 15.4866 41.8356 15.8949 41.7413 16.743C41.71 17.0257 42.1496 17.5283 42.4638 17.5911C43.1861 17.7168 43.5002 18.031 43.4687 18.7534C43.4687 18.9734 43.6887 19.2246 43.8457 19.4131C44.1912 19.8215 44.5995 20.167 44.8821 20.6069C45.4161 21.455 45.8872 22.3345 46.4525 23.3083C46.798 22.9314 46.9865 22.6486 47.2692 22.4602C48.1486 21.7691 48.0229 21.1723 47.2378 20.4812C46.5154 19.8528 45.9186 19.0989 45.2591 18.4079C47.0807 18.6279 48.4627 17.7796 49.8132 16.9C49.9703 16.8059 50.1587 16.7117 50.3158 16.6174C50.8183 16.3347 51.0696 16.4603 51.4779 16.9315C52.5457 18.2508 52.9227 19.7273 52.9855 21.3921C53.0483 23.9052 52.797 24.3764 50.41 25.0674C50.3158 25.0988 50.2215 25.1931 50.0017 25.3187C50.5041 25.8527 50.9125 26.2926 51.2266 26.6381C50.5041 27.926 49.7818 29.1825 49.1222 30.439C48.7767 31.0987 48.3684 31.35 47.6461 31.5384C46.6095 31.7897 45.5418 32.2296 44.7251 32.9207C43.3746 34.0514 42.2125 35.4022 40.9247 36.6902C41.5215 36.5332 42.2125 36.376 42.8721 36.219C42.9349 36.3132 43.0291 36.4388 43.0919 36.5332C41.9611 37.4754 40.8305 38.4493 39.6998 39.3916C39.7313 39.4544 39.7626 39.5488 39.7941 39.6116C40.5479 39.2661 41.333 38.9519 42.0868 38.6064C40.0453 40.2712 38.8203 42.4387 38.1922 44.9518C37.7839 46.5224 37.0301 47.8417 35.4597 48.8155C35.7423 48.9098 35.8995 49.004 36.0878 49.004C38.3807 49.161 39.9197 48.3129 40.9247 46.2082C41.333 45.3915 41.71 44.5747 42.1183 43.6952C42.5894 44.6376 42.9977 45.4543 43.406 46.2397C43.5316 46.2082 43.6259 46.1454 43.7515 46.114C43.2804 44.5119 42.8406 42.9413 43.7829 41.3393C45.102 39.1404 46.3269 36.8787 46.0442 34.1771C46.0442 34.0514 46.0442 33.8944 46.1071 33.8316C46.4525 33.5174 46.798 33.2662 47.1435 32.952C47.3006 33.329 47.5205 33.7059 47.6146 34.0829C47.8659 35.2452 47.7403 36.5959 48.3371 37.5383C49.2479 39.0147 49.1537 40.2398 48.3684 41.5906C48.0858 42.0617 47.8659 42.5644 47.5518 43.0041C46.9237 43.8837 46.9237 44.7946 47.1435 45.7999C47.489 47.559 47.8345 49.3495 47.9288 51.14C48.0544 53.0248 48.9337 53.9358 51.1324 53.8416C50.9125 53.3704 50.7555 52.962 50.5041 52.6165C48.9024 50.1349 48.1486 47.5275 49.4992 44.7633C50.4728 42.7214 51.7919 40.8681 52.9227 38.9204C54.1476 39.5173 54.2418 40.3027 53.6136 41.2451C53.174 41.9361 52.7028 42.6272 52.2002 43.2554C51.6036 43.9779 51.6349 44.5747 52.2945 45.203C53.0483 45.8942 53.7706 46.6166 54.4931 47.3391C55.875 48.7526 56.8486 50.4176 57.6652 52.3966C58.3562 52.5223 59.2671 52.7106 60.1466 52.8678C60.2092 52.7735 60.2407 52.6793 60.3036 52.585C59.2985 51.0772 58.2934 49.5694 57.2256 48.1244C56.7544 47.4647 56.0948 46.9308 55.5609 46.3024C54.6501 45.2345 54.5559 44.4177 55.5609 43.5068C57.2569 41.999 58.262 40.0827 59.3299 38.1665C59.8953 37.1614 60.1151 36.219 59.5811 35.1824C58.9216 33.8944 59.3299 32.8578 60.3349 31.8526C60.9317 32.7007 61.5285 32.8263 62.188 31.9468C62.3136 31.7897 62.6906 31.8526 62.8791 31.7269C63.3187 31.507 63.7584 31.2557 64.1039 30.9417C64.418 30.6275 64.6065 30.1877 64.8576 29.8107C65.109 29.4338 65.3603 29.1197 65.7057 28.6485C65.2033 28.5228 64.9205 28.4599 64.3552 28.3029C65.7999 26.6066 67.1192 25.0674 68.2184 23.8108C69.2549 23.3398 70.0087 22.9941 70.731 22.6486V24.4706C70.8253 24.5334 70.9194 24.6276 71.0138 24.6904C71.7676 24.0622 72.5213 23.4025 73.3065 22.8686C74.2801 22.2402 74.7199 21.3921 74.5629 20.1985C75.9762 21.0151 76.8871 24.2821 76.1646 25.6015C75.4422 26.9836 75.8192 27.7689 77.5466 28.1772C77.7664 25.8527 77.9864 23.434 77.0441 20.9837ZM72.0187 19.2874C71.3906 19.3503 70.7625 19.5388 69.9145 19.6958C70.9823 18.7849 71.8931 17.9995 72.8668 17.1514C73.5891 18.9106 73.4635 19.1304 72.0187 19.2874Z" fill="white"/>
<path d="M39.072 75.1396C38.1299 71.6215 37.1248 68.1031 36.214 64.585C36.0883 64.1138 36.2453 63.5169 36.371 63.0457C36.7793 61.5065 37.4703 59.9987 37.6587 58.4594C37.9414 56.0094 37.6273 53.5905 36.1825 51.4544C34.9891 49.6953 33.4187 49.4126 31.6284 50.5434C31.5028 50.6062 31.3771 50.6691 31.1573 50.7947C31.0001 50.2922 30.8745 49.8838 30.749 49.4126C29.3356 49.978 28.0165 50.512 26.6031 51.0774C27.6395 59.7474 27.3569 68.4173 26.1006 77.0873C27.7652 76.8359 29.2414 76.6161 30.9373 76.3647C31.2201 73.0036 31.5341 69.6111 31.8168 66.187C31.9424 66.187 32.0994 66.187 32.2251 66.187C32.9789 70.0508 33.7327 73.946 34.5179 77.9669C36.214 77.4015 37.7529 76.8988 39.3862 76.3334C39.2605 75.7993 39.1663 75.4852 39.072 75.1396ZM31.5028 62.2918C31.5028 60.0301 31.4713 58.0511 31.5341 56.0407C31.5341 55.758 31.7854 55.224 31.9424 55.224C32.2566 55.224 32.6962 55.381 32.916 55.6323C34.1725 57.1088 33.4815 60.9097 31.5028 62.2918Z" fill="white"/>
<path d="M87.7543 76.4892C86.278 76.7406 84.9589 76.9919 83.5455 77.2432C83.5455 74.6359 83.6084 72.0915 83.514 69.5471C83.4827 68.5733 83.2942 67.5994 82.9487 66.6885C82.7603 66.1545 82.1636 65.7776 81.7553 65.3377C81.6296 65.4006 81.504 65.4949 81.4098 65.5576C81.4098 69.0131 81.4098 72.4685 81.4098 75.9554C79.9336 76.3009 78.5202 76.6464 77.0441 76.9919C77.0441 68.0078 77.0441 59.0238 77.0441 49.9455C78.4888 49.8198 79.9336 49.6941 81.4726 49.5686C81.4726 52.9926 81.4726 56.4166 81.4726 59.8405C83.8282 58.8981 85.0531 59.2752 86.1524 61.7567C86.8433 63.3274 87.3145 65.0237 87.5971 66.6885C88.1626 69.8926 88.0998 73.1281 87.7543 76.4892Z" fill="white"/>
<path d="M0.848019 76.805C1.06788 72.9726 1.28773 69.2973 1.53899 65.6221C1.60181 64.6168 1.57041 63.8001 0 63.9886C2.70109 59.5907 1.03647 55.036 1.06788 50.481C3.73757 49.9157 6.40726 49.9157 9.10835 50.1669C9.32821 50.1984 9.54806 50.5124 9.6737 50.7324C9.76793 50.8894 9.73652 51.1093 9.76793 51.2978C10.1134 54.4704 9.83074 54.7533 6.75274 54.7218C6.5643 54.7218 6.37584 54.7218 6.09318 54.7218C6.09318 56.1982 6.09318 57.6117 6.09318 59.1195C7.25528 59.1195 8.35456 59.151 9.42243 59.1195C10.1448 59.0882 10.5531 59.2767 10.5531 60.0619C10.5531 60.1248 10.5845 60.219 10.5845 60.2818C11.1499 63.6116 10.9614 63.8314 7.69499 64.02C7.22386 64.0514 6.78415 64.0828 6.25022 64.1456C6.12458 66.6272 6.03036 69.0146 5.93614 71.5276C7.63217 71.5276 9.26539 71.5276 11.2127 71.5276C10.8672 73.1925 10.5845 74.6689 10.2076 76.1139C10.1762 76.3024 9.83074 76.5223 9.61089 76.5851C6.65851 77.0563 3.76898 77.496 0.848019 76.805Z" fill="white"/>
<path d="M54.0225 76.9929C54.0225 71.0559 54.0225 65.3389 54.0225 59.5902C55.4045 59.1505 56.6921 58.7735 58.1056 58.3337C58.1056 59.1818 58.1056 59.9672 58.1056 61.0353C58.5139 60.4698 58.7652 60.1557 58.985 59.8415C60.0214 58.4908 61.1835 58.4279 62.0943 59.873C62.8481 61.0667 63.4764 62.4488 63.8532 63.7996C64.984 67.7261 65.0781 71.7785 64.7642 75.8307C64.7327 76.2077 64.293 76.7416 63.9475 76.8359C62.9109 77.15 61.8117 77.2756 60.5554 77.527C60.5554 76.8673 60.5867 76.3647 60.5554 75.8622C60.4298 73.0664 60.3041 70.302 60.1784 67.5062C60.1784 67.3177 60.1471 67.0979 60.0843 66.9409C59.833 66.2811 59.833 65.276 58.828 65.4016C58.5767 65.4331 58.3254 66.4696 58.294 67.0665C58.1997 69.9251 58.1684 72.7836 58.1684 75.6737C58.1684 76.4589 57.9486 76.8044 57.1319 76.8044C56.1268 76.8359 55.0904 76.9301 54.0225 76.9929Z" fill="white"/>
<path d="M51.8851 69.0772C51.7594 67.7893 51.6024 66.47 51.1628 65.2764C50.6288 63.7371 49.9692 62.1978 49.0584 60.8471C48.022 59.3079 46.3573 58.711 44.5042 59.1193C44.0959 59.2137 43.5306 59.6534 43.4678 59.9989C43.2793 61.2555 43.2479 62.5435 43.1851 63.7999C45.2266 63.6742 45.9176 64.0513 46.4516 65.5904C46.2317 65.6219 46.0118 65.6846 45.7919 65.7474C41.5833 66.6585 39.3218 70.6479 40.7352 74.7629C41.6147 77.3388 44.0017 78.0614 46.1689 76.3964C46.6401 76.0195 47.111 75.6112 47.6765 75.1085C47.7393 75.8939 47.8022 76.5221 47.8648 77.1818C49.3726 76.7734 50.7545 76.3964 52.3249 75.9567C52.1678 73.6007 52.1051 71.339 51.8851 69.0772ZM47.2054 72.7211C46.8284 72.7211 46.3259 72.6584 46.0433 72.407C44.9125 71.339 45.5406 68.8259 47.2682 68.1035C47.3938 69.4856 47.5194 70.7736 47.5822 72.03C47.6137 72.25 47.331 72.7211 47.2054 72.7211Z" fill="white"/>
<path d="M99.972 67.946C99.972 67.3177 100.035 66.6895 99.972 66.0611C99.7522 63.9251 99.3125 61.8519 97.8678 60.1556C96.5486 58.6164 94.6642 58.3336 93.0309 59.5587C92.34 60.0928 91.649 60.7838 91.2407 61.5377C89.0735 65.7156 89.1048 69.9878 90.9579 74.2599C91.6803 75.8934 92.9366 76.9928 94.884 77.0243C96.8312 77.0243 97.962 75.7992 98.7786 74.2285C99.7837 72.2495 100.098 70.1135 99.972 67.946ZM95.8576 70.1135C95.7006 70.459 95.1038 70.7731 94.7583 70.7731C94.3815 70.7417 93.9104 70.3647 93.7219 69.9878C93.4706 69.4853 93.4706 68.8569 93.3449 68.2602C93.4706 67.6318 93.5021 67.0036 93.7219 66.4382C93.8789 66.0611 94.35 65.6528 94.6955 65.6214C95.0725 65.5901 95.6378 65.9356 95.7948 66.2497C96.4544 67.5376 96.4544 68.8569 95.8576 70.1135Z" fill="white"/>
<path d="M17.3681 77.307C15.9547 77.2442 14.5727 77.1813 12.9395 77.1185C12.9395 75.3907 12.9081 73.7573 12.9395 72.1239C13.0337 65.1187 13.1594 58.1451 13.2536 51.1401C13.2536 50.229 13.5991 49.915 14.4471 49.8207C15.4522 49.7265 16.4572 49.4751 17.3681 49.2866C17.3681 58.585 17.3681 67.8516 17.3681 77.307Z" fill="white"/>
<path d="M74.2491 64.2705C72.773 63.7678 71.8307 64.1762 71.3281 65.6527C70.6686 67.5374 70.6058 69.4222 71.4852 71.2755C72.1762 72.752 73.087 73.2232 74.7202 73.0975C74.7202 73.9771 74.8144 74.888 74.6889 75.7676C74.6261 76.2073 74.1549 76.71 73.7466 76.9927C72.1447 78.0293 70.1033 77.5581 68.6899 75.9246C67.308 74.2911 66.8054 72.3436 66.6797 70.2703C66.4599 67.1918 66.8368 64.239 68.6271 61.6005C69.695 60.0298 71.1711 59.0246 73.1813 59.2131C74.7202 59.3388 75.0972 59.9355 74.7831 61.4433C74.5632 62.3544 74.4376 63.3281 74.2491 64.2705Z" fill="white"/>
<path d="M99.5006 54.3129C99.0608 53.4961 98.684 52.8679 98.4013 52.1768C97.459 49.8523 96.6738 47.4649 95.6373 45.1717C93.1246 39.5174 89.4185 34.6484 84.9899 30.3763C83.608 29.0569 82.2889 27.6434 80.9383 26.2611C80.6242 25.9471 80.3415 25.5701 79.9647 25.0989C86.7175 26.5125 102.076 49.2868 99.5006 54.3129Z" fill="white"/>
<path d="M13.0657 30.0939C13.1599 29.9368 13.1913 29.7483 13.3169 29.6227C20.1954 23.0888 28.2044 18.7539 37.5012 16.8062C37.8467 16.7434 38.2235 16.8062 38.6005 16.8062C38.6318 16.9004 38.6633 17.0261 38.7261 17.1204C38.412 17.3088 38.098 17.5916 37.7525 17.6543C28.5184 19.5078 20.5722 23.8741 13.4426 29.9054C13.3483 29.9996 13.1913 30.0311 13.0657 30.0939Z" fill="white"/>
<path d="M13.0654 30.0935C11.1809 32.3867 9.26501 34.6484 7.47475 36.973C6.06138 38.8263 4.77366 40.8053 3.20325 42.6587C3.32887 42.376 3.39169 42.0933 3.54873 41.8106C5.81011 37.2872 9.13938 33.6118 12.7827 30.1878C12.8141 30.125 12.9712 30.125 13.0654 30.0935Z" fill="white"/>
</g>
<defs>
<clipPath id="clip0_7_543">
<rect width="100" height="78" fill="white"/>
</clipPath>
</defs>
</svg>
