<svg width="20" height="20" viewBox="0 0 20 20" fill="none" xmlns="http://www.w3.org/2000/svg">
<path d="M16.7463 3.02778C14.9881 1.21787 12.5576 0.235352 10.0755 0.235352C4.80086 0.235352 0.560501 4.52742 0.612213 9.75031C0.612213 11.4051 1.07762 13.0081 1.85329 14.4561L0.508789 19.3687L5.52483 18.0759C6.92104 18.8516 8.47239 19.2136 10.0237 19.2136C15.2466 19.2136 19.487 14.9215 19.487 9.69859C19.487 7.16472 18.5045 4.78598 16.7463 3.02778ZM10.0755 17.6105C8.67924 17.6105 7.28302 17.2485 6.09365 16.5245L5.78338 16.3694L2.7841 17.1451L3.55978 14.1975L3.35293 13.8872C1.07762 10.2157 2.16356 5.35481 5.88681 3.0795C9.61005 0.80418 14.4192 1.89013 16.6946 5.61337C18.9699 9.33661 17.8839 14.1458 14.1607 16.4211C12.9713 17.1968 11.5234 17.6105 10.0755 17.6105ZM14.6261 11.8705L14.0573 11.6119C14.0573 11.6119 13.2299 11.2499 12.7128 10.9914C12.661 10.9914 12.6093 10.9397 12.5576 10.9397C12.4025 10.9397 12.2991 10.9914 12.1956 11.0431C12.1956 11.0431 12.1439 11.0948 11.42 11.9222C11.3682 12.0256 11.2648 12.0773 11.1614 12.0773H11.1097C11.058 12.0773 10.9546 12.0256 10.9028 11.9739L10.6443 11.8705C10.0755 11.6119 9.55834 11.3017 9.14465 10.888C9.04122 10.7845 8.88609 10.6811 8.78266 10.5777C8.42068 10.2157 8.0587 9.80202 7.80014 9.33661L7.74843 9.23319C7.69672 9.18148 7.69672 9.12977 7.64501 9.02634C7.64501 8.92292 7.64501 8.8195 7.69672 8.76778C7.69672 8.76778 7.90356 8.50923 8.0587 8.35409C8.16212 8.25067 8.21383 8.09553 8.31726 7.99211C8.42068 7.83697 8.47239 7.63013 8.42068 7.47499C8.36897 7.21643 7.74843 5.82022 7.59329 5.50995C7.48987 5.35481 7.38645 5.3031 7.23131 5.25139H7.07618C6.97275 5.25139 6.81762 5.25139 6.66248 5.25139C6.55906 5.25139 6.45564 5.3031 6.35221 5.3031L6.3005 5.35481C6.19708 5.40652 6.09365 5.50995 5.99023 5.56166C5.88681 5.66508 5.8351 5.7685 5.73167 5.87193C5.36969 6.33733 5.16284 6.90616 5.16284 7.47499C5.16284 7.88869 5.26627 8.30238 5.4214 8.66436L5.47311 8.8195C5.93852 9.80202 6.55906 10.6811 7.38645 11.4568L7.59329 11.6636C7.74843 11.8188 7.90356 11.9222 8.00699 12.0773C9.09293 13.0081 10.334 13.6804 11.7302 14.0424C11.8854 14.0941 12.0922 14.0941 12.2473 14.1458C12.4025 14.1458 12.6093 14.1458 12.7645 14.1458C13.023 14.1458 13.3333 14.0424 13.5401 13.939C13.6953 13.8355 13.7987 13.8355 13.9021 13.7321L14.0055 13.6287C14.109 13.5253 14.2124 13.4736 14.3158 13.3701C14.4192 13.2667 14.5227 13.1633 14.5744 13.0599C14.6778 12.853 14.7295 12.5945 14.7812 12.3359C14.7812 12.2325 14.7812 12.0773 14.7812 11.9739C14.7812 11.9739 14.7295 11.9222 14.6261 11.8705Z" fill="white"/>
</svg>
