<svg width="49" height="49" viewBox="0 0 49 49" fill="none" xmlns="http://www.w3.org/2000/svg">
<circle cx="24.5" cy="24.5" r="24" stroke="#B3844F"/>
<path d="M35.5469 33.1488C35.5469 33.5838 35.4503 34.0309 35.2448 34.4659C35.0394 34.9009 34.7736 35.3117 34.4232 35.6984C33.8311 36.3509 33.1786 36.8222 32.4415 37.1242C31.7165 37.4263 30.9311 37.5834 30.0853 37.5834C28.8528 37.5834 27.5357 37.2934 26.1461 36.7013C24.7565 36.1092 23.3669 35.3117 21.9894 34.3088C20.5998 33.2938 19.2828 32.1701 18.0261 30.9255C16.7815 29.6688 15.6578 28.3517 14.6548 26.9742C13.664 25.5967 12.8665 24.2192 12.2865 22.8538C11.7065 21.4763 11.4165 20.1592 11.4165 18.9026C11.4165 18.0809 11.5615 17.2955 11.8515 16.5705C12.1415 15.8334 12.6007 15.1567 13.2411 14.5526C14.0144 13.7913 14.8603 13.4167 15.7544 13.4167C16.0928 13.4167 16.4311 13.4892 16.7332 13.6342C17.0473 13.7792 17.3253 13.9967 17.5428 14.3109L20.3461 18.2622C20.5636 18.5642 20.7207 18.8422 20.8294 19.108C20.9382 19.3617 20.9986 19.6155 20.9986 19.8451C20.9986 20.1351 20.914 20.4251 20.7448 20.703C20.5878 20.9809 20.3582 21.2709 20.0682 21.5609L19.1498 22.5155C19.0169 22.6484 18.9565 22.8055 18.9565 22.9988C18.9565 23.0955 18.9686 23.1801 18.9928 23.2767C19.029 23.3734 19.0653 23.4459 19.0894 23.5184C19.3069 23.9172 19.6815 24.4367 20.2132 25.0651C20.7569 25.6934 21.3369 26.3338 21.9653 26.9742C22.6178 27.6147 23.2461 28.2067 23.8865 28.7505C24.5148 29.2822 25.0344 29.6447 25.4453 29.8622C25.5057 29.8863 25.5782 29.9226 25.6628 29.9588C25.7594 29.9951 25.8561 30.0072 25.9648 30.0072C26.1703 30.0072 26.3273 29.9347 26.4603 29.8017L27.3786 28.8955C27.6807 28.5934 27.9707 28.3638 28.2486 28.2188C28.5265 28.0497 28.8044 27.9651 29.1065 27.9651C29.3361 27.9651 29.5778 28.0134 29.8436 28.1222C30.1094 28.2309 30.3873 28.388 30.6894 28.5934L34.689 31.433C35.0032 31.6505 35.2207 31.9042 35.3536 32.2063C35.4744 32.5084 35.5469 32.8105 35.5469 33.1488Z" stroke="#0B382B" stroke-miterlimit="10"/>
<path d="M31.3542 21.8752C31.3542 21.1502 30.7863 20.0385 29.9404 19.1322C29.1671 18.2985 28.14 17.646 27.125 17.646" stroke="#0B382B" stroke-linecap="round" stroke-linejoin="round"/>
<path d="M35.5833 21.8751C35.5833 17.1988 31.8013 13.4167 27.125 13.4167" stroke="#0B382B" stroke-linecap="round" stroke-linejoin="round"/>
</svg>
