<svg width="49" height="49" viewBox="0 0 49 49" fill="none" xmlns="http://www.w3.org/2000/svg">
<circle cx="24.5" cy="24.5" r="24" stroke="#B3844F"/>
<path d="M19.6665 12.4167V16.0417" stroke="#0B382B" stroke-miterlimit="10" stroke-linecap="round" stroke-linejoin="round"/>
<path d="M29.3335 12.4167V16.0417" stroke="#0B382B" stroke-miterlimit="10" stroke-linecap="round" stroke-linejoin="round"/>
<path d="M31.9917 35.8583C34.1272 35.8583 35.8583 34.1272 35.8583 31.9917C35.8583 29.8562 34.1272 28.125 31.9917 28.125C29.8562 28.125 28.125 29.8562 28.125 31.9917C28.125 34.1272 29.8562 35.8583 31.9917 35.8583Z" stroke="#0B382B" stroke-linecap="round" stroke-linejoin="round"/>
<path d="M36.5833 36.5833L35.375 35.375" stroke="#0B382B" stroke-linecap="round" stroke-linejoin="round"/>
<path d="M14.229 20.9836H34.7707" stroke="#0B382B" stroke-miterlimit="10" stroke-linecap="round" stroke-linejoin="round"/>
<path d="M26.1554 36.5834H19.6667C15.4375 36.5834 13.625 34.1667 13.625 30.5417V20.2709C13.625 16.6459 15.4375 14.2292 19.6667 14.2292H29.3333C33.5625 14.2292 35.375 16.6459 35.375 20.2709V25.7084" stroke="#0B382B" stroke-miterlimit="10" stroke-linecap="round" stroke-linejoin="round"/>
<path d="M24.4945 26.5541H24.5054" stroke="#0B382B" stroke-linecap="round" stroke-linejoin="round"/>
<path d="M20.0223 26.5541H20.0332" stroke="#0B382B" stroke-linecap="round" stroke-linejoin="round"/>
<path d="M20.0223 30.1791H20.0332" stroke="#0B382B" stroke-linecap="round" stroke-linejoin="round"/>
</svg>
