<?xml version="1.0" standalone="no"?>
<!DOCTYPE svg PUBLIC "-//W3C//DTD SVG 20010904//EN"
 "http://www.w3.org/TR/2001/REC-SVG-20010904/DTD/svg10.dtd">
<svg version="1.0" xmlns="http://www.w3.org/2000/svg"
 width="800.000000pt" height="800.000000pt" viewBox="0 0 800.000000 800.000000"
 preserveAspectRatio="xMidYMid meet">
<metadata>
Created by potrace 1.14, written by Peter Selinger 2001-2017
</metadata>
<g transform="translate(0.000000,800.000000) scale(0.100000,-0.100000)"
fill="#000000" stroke="none">
<path d="M4972 7064 c-17 -61 -83 -124 -162 -154 -33 -12 -62 -26 -65 -30 -2
-4 7 -13 20 -20 14 -7 25 -18 25 -24 -1 -6 -39 -35 -85 -64 -56 -36 -82 -58
-79 -67 3 -8 -13 -68 -36 -135 -35 -100 -40 -123 -30 -135 25 -30 18 -207 -10
-238 -7 -8 -184 75 -206 98 -23 23 -17 35 53 101 l66 62 -32 28 c-18 15 -38
33 -45 39 -6 6 -28 21 -48 33 -20 13 -47 40 -59 60 -40 67 -62 74 -145 46 -91
-31 -118 -56 -130 -121 -8 -42 -35 -81 -68 -97 l-31 -16 34 0 c48 0 94 -49
116 -125 9 -33 22 -66 28 -73 11 -14 1 -27 -152 -180 -143 -143 -233 -193
-356 -197 -55 -2 -81 2 -120 19 -54 25 -205 141 -205 158 0 6 -3 9 -6 5 -3 -3
-16 3 -28 14 -11 11 -46 39 -76 62 -30 23 -57 44 -60 47 -10 11 -306 227 -347
255 -24 15 -43 31 -43 36 0 4 -8 10 -19 14 -10 3 -29 14 -42 25 -28 23 -33 27
-79 61 -19 14 -50 34 -69 43 l-33 18 18 -31 c10 -17 21 -31 24 -31 3 0 19 -12
35 -26 17 -14 89 -74 160 -132 72 -59 132 -109 135 -112 9 -9 75 -64 114 -95
21 -16 44 -35 50 -40 6 -6 36 -30 66 -55 30 -25 60 -49 66 -55 7 -5 29 -24 50
-41 155 -125 174 -148 174 -202 0 -35 39 -82 69 -82 29 -1 61 -34 66 -68 4
-38 17 -60 70 -117 20 -22 51 -64 69 -93 17 -29 36 -61 41 -70 6 -9 21 -36 33
-60 l23 -43 47 42 c57 52 76 83 68 114 -3 13 -49 68 -101 121 -52 54 -95 101
-95 106 0 4 12 6 28 4 72 -9 170 26 309 110 40 24 82 44 94 44 52 0 135 -136
162 -265 8 -40 14 -115 13 -175 -3 -150 -25 -185 -146 -226 -96 -32 -96 -33
-41 -93 l48 -53 -76 -136 c-42 -75 -83 -150 -91 -165 -21 -41 -64 -75 -113
-88 -51 -13 -170 -59 -177 -69 -3 -3 -21 -16 -40 -27 -19 -12 -100 -88 -179
-168 -154 -157 -155 -158 -44 -125 34 11 45 11 58 0 13 -11 8 -18 -37 -54 -29
-22 -60 -48 -68 -56 -15 -14 -76 -66 -129 -107 -13 -11 -22 -25 -20 -31 4 -11
6 -11 110 37 25 12 48 21 52 21 4 0 -18 -25 -48 -56 -47 -47 -138 -167 -140
-184 -1 -3 -11 -24 -23 -48 -25 -47 -64 -154 -82 -222 -29 -109 -106 -224
-186 -276 -22 -15 -23 -19 -10 -26 23 -13 123 -11 181 3 28 7 67 23 88 36 41
26 107 89 107 103 0 5 6 15 13 22 14 15 77 144 77 158 0 6 4 10 8 10 5 0 15
18 22 40 7 22 17 40 22 40 5 0 7 -4 4 -9 -4 -5 -3 -11 1 -13 5 -1 28 -42 52
-90 24 -49 47 -88 52 -88 17 0 17 20 -1 91 -35 133 -24 226 39 329 17 28 31
54 31 59 0 5 6 16 13 23 12 12 47 82 69 138 32 80 49 165 53 254 l3 100 39 32
c21 18 41 30 46 27 12 -7 35 -67 41 -109 7 -48 18 -134 18 -154 0 -8 19 -53
41 -100 35 -73 40 -95 41 -155 1 -78 -10 -105 -98 -255 -48 -81 -50 -87 -49
-160 0 -41 5 -100 11 -130 36 -177 47 -246 57 -380 7 -92 43 -163 98 -189 45
-22 142 -36 151 -23 3 5 -13 40 -36 78 -124 210 -162 356 -134 511 8 40 44
134 57 148 5 5 9 17 9 27 0 10 5 18 10 18 6 0 10 4 10 9 0 21 221 383 237 388
21 7 75 -51 79 -86 5 -40 -16 -80 -100 -196 -36 -49 -67 -94 -68 -100 -9 -63
-9 -64 143 -217 82 -82 149 -153 149 -158 0 -5 7 -15 15 -24 20 -20 93 -146
129 -223 17 -35 33 -64 38 -64 4 -1 11 -2 16 -4 32 -9 61 -15 87 -19 17 -3 42
-8 58 -11 19 -4 29 -1 33 9 9 24 -224 357 -323 462 -98 104 -110 127 -100 190
4 26 24 54 76 107 98 101 170 204 271 392 39 72 43 87 44 150 0 49 -5 80 -17
103 -40 74 -25 172 36 238 23 25 25 25 38 7 8 -10 26 -23 40 -30 28 -12 44 -6
92 34 16 12 36 23 44 23 9 0 36 12 60 28 56 34 183 210 161 223 -7 5 -18 9
-25 9 -24 0 -67 21 -57 28 5 4 40 43 78 87 123 143 170 198 201 231 24 26 113
74 213 116 4 2 8 -28 8 -65 1 -38 6 -73 12 -79 10 -10 48 9 83 42 26 25 61 53
116 93 28 20 61 54 73 75 19 31 24 54 29 126 2 22 65 -54 90 -109 35 -75 52
-142 52 -208 -1 -61 -2 -70 -24 -120 -37 -84 -23 -130 48 -166 63 -31 71 -28
75 27 10 142 3 350 -14 417 -52 197 -104 280 -187 300 -43 11 -44 11 -41 50 5
51 5 45 3 82 -1 20 -11 44 -28 63 -23 25 -38 31 -77 34 -28 2 -61 0 -75 -6
-15 -5 -33 -11 -41 -13 -8 -2 -28 -9 -45 -16 -16 -7 -32 -13 -35 -13 -3 -1
-11 -5 -17 -9 -7 -5 -13 -6 -13 -2 0 3 -10 0 -22 -7 -13 -6 -27 -13 -33 -15
-5 -1 -20 -5 -31 -8 -21 -6 -22 -3 -23 50 -1 124 -52 205 -199 320 -66 51
-148 150 -158 191 -3 13 -9 24 -13 24 -6 0 -41 96 -41 112 0 3 21 4 48 2 26
-1 92 -6 147 -10 55 -3 118 -8 140 -10 106 -9 185 -5 215 13 35 20 70 86 70
131 0 46 -79 121 -177 167 -43 20 -94 44 -113 53 -19 10 -63 45 -98 80 -61 61
-90 77 -182 109 -58 19 -63 24 -51 56 6 15 9 27 7 27 -2 0 -24 -11 -47 -25
-24 -14 -47 -25 -50 -25 -4 0 -12 14 -19 30 -19 45 -25 44 -38 -6z m880 -1376
c21 -66 8 -94 -49 -104 -21 -3 -69 -12 -108 -20 -38 -8 -76 -14 -83 -14 -7 0
37 43 99 95 61 52 114 95 118 95 4 0 14 -24 23 -52z"/>
<path d="M2941 5763 c-23 -6 -54 -14 -69 -17 -33 -6 -145 -37 -227 -62 -33
-10 -62 -18 -65 -19 -22 -4 -88 -30 -99 -39 -8 -6 -17 -10 -20 -8 -6 3 -75
-20 -126 -43 -16 -7 -54 -23 -83 -34 -67 -27 -288 -137 -395 -198 -133 -75
-358 -224 -434 -288 -7 -5 -25 -20 -40 -32 -76 -58 -215 -177 -270 -230 -64
-62 -85 -98 -38 -67 14 9 25 19 25 23 0 4 12 14 28 23 15 9 39 27 53 40 14 13
40 34 58 48 18 14 43 33 54 43 12 9 47 35 77 57 30 22 60 43 65 47 6 5 37 26
70 48 33 21 62 42 65 45 13 17 308 187 420 243 69 34 127 65 128 70 2 4 11 7
21 7 9 0 25 6 36 13 11 8 54 27 95 43 41 15 77 31 80 34 3 3 10 6 15 7 6 1 55
18 110 38 149 54 387 123 490 140 71 13 137 48 129 69 -6 16 -95 16 -153 -1z"/>
<path d="M6410 5101 c0 -14 65 -84 293 -315 253 -256 348 -356 397 -416 19
-24 40 -48 45 -54 49 -52 255 -338 255 -354 0 -6 4 -12 8 -14 14 -5 134 -216
193 -338 31 -63 82 -180 114 -260 31 -80 61 -154 65 -165 4 -11 22 -58 40
-105 45 -121 60 -156 102 -235 l37 -70 11 30 c16 42 14 142 -4 230 -3 11 -5
21 -6 23 -2 1 -4 7 -5 12 -1 6 -3 11 -4 13 -2 1 -4 13 -7 27 -13 73 -140 359
-239 539 -105 190 -343 560 -367 569 -4 2 -8 10 -8 17 0 7 -3 15 -7 17 -13 5
-73 86 -73 97 0 5 -3 11 -8 13 -4 2 -36 39 -72 83 -35 44 -67 82 -70 85 -3 3
-25 30 -50 60 -68 83 -286 299 -365 361 -90 71 -141 103 -211 134 -64 28 -64
28 -64 16z"/>
<path d="M903 4588 c-150 -151 -187 -190 -238 -252 -22 -27 -48 -58 -59 -70
-10 -11 -37 -46 -60 -76 -22 -30 -43 -57 -46 -60 -3 -3 -23 -32 -45 -65 -22
-33 -43 -61 -47 -63 -5 -2 -8 -7 -8 -11 0 -5 -27 -54 -60 -111 -32 -57 -64
-117 -70 -134 -10 -29 -9 -29 29 14 22 25 41 48 41 52 0 4 6 13 12 20 22 23
108 138 108 143 0 3 5 11 10 18 43 50 60 73 60 78 0 3 8 15 18 27 10 11 27 33
38 47 30 42 115 149 122 155 4 3 26 30 49 60 23 30 50 64 60 75 10 11 36 43
58 70 21 28 42 52 45 55 3 3 25 30 49 60 25 30 51 63 59 73 8 9 11 17 6 17 -6
0 -65 -55 -131 -122z"/>
<path d="M1290 3158 c-218 -42 -216 -41 -225 -89 -3 -13 -7 -179 -10 -369 -3
-190 -8 -498 -11 -685 -10 -619 -11 -1056 -2 -1061 5 -3 72 -8 151 -10 78 -3
152 -7 165 -9 13 -2 25 2 28 8 2 7 3 512 2 1122 l-3 1110 -95 -17z"/>
<path d="M2365 3130 c-49 -21 -99 -42 -110 -45 -26 -9 -24 -9 -69 -28 -21 -9
-43 -17 -49 -17 -6 0 -7 -23 -3 -62 32 -295 40 -450 40 -813 0 -256 -7 -498
-19 -605 -2 -19 -6 -69 -9 -110 -4 -41 -9 -93 -11 -115 -3 -22 -7 -60 -10 -85
-4 -49 -12 -115 -20 -170 -18 -128 -19 -126 12 -124 15 1 28 3 28 4 0 1 9 3
20 4 23 3 109 16 133 20 10 2 44 7 77 12 33 4 63 8 68 10 4 1 13 2 20 3 8 0
14 7 14 14 1 26 13 174 18 217 9 94 15 164 30 350 3 36 8 88 11 115 4 28 6 64
5 81 -1 20 4 34 13 37 21 8 23 3 47 -114 11 -57 22 -113 25 -124 2 -11 6 -33
9 -50 2 -16 7 -41 10 -55 3 -14 8 -38 10 -55 3 -16 12 -61 20 -100 8 -38 17
-86 20 -105 3 -19 8 -42 10 -50 2 -8 7 -28 10 -45 12 -69 16 -94 30 -162 8
-40 15 -74 15 -77 0 -2 87 25 194 60 224 75 204 50 159 209 -14 50 -26 97 -28
105 -4 14 -51 189 -60 220 -2 8 -9 32 -15 53 -5 20 -15 54 -20 75 -6 20 -12
44 -14 52 -14 55 -59 223 -70 260 -14 50 -13 100 6 163 14 52 14 49 21 67 20
51 59 186 71 245 21 99 14 309 -12 395 -38 123 -88 215 -152 277 -74 72 -178
81 -283 24 -32 -17 -59 -31 -61 -31 -2 0 -11 25 -21 55 -9 30 -18 55 -18 54
-1 -1 -42 -18 -92 -39z m238 -442 c34 -18 46 -34 62 -78 12 -34 22 -151 15
-170 -1 -3 -4 -18 -6 -34 -3 -16 -12 -47 -20 -70 -9 -23 -16 -47 -16 -53 -1
-7 -4 -13 -7 -13 -3 0 -12 -12 -19 -27 -15 -33 -28 -49 -65 -83 l-28 -24 0 69
c1 39 1 79 1 90 0 11 0 52 1 90 0 39 0 75 -1 80 -1 6 -2 12 -1 15 2 3 2 39 2
80 1 128 22 161 82 128z"/>
<path d="M6499 3156 c-2 -2 -40 -7 -84 -10 -44 -4 -109 -10 -145 -13 -36 -3
-74 -6 -85 -7 -20 -1 -20 -8 -20 -1079 -1 -593 2 -1080 5 -1081 3 -2 39 5 80
15 41 10 86 21 100 24 14 2 40 9 58 14 18 5 35 10 37 10 29 -1 65 16 66 29 0
9 1 196 2 414 2 442 3 444 59 392 41 -36 48 -48 71 -104 34 -88 39 -150 41
-518 l1 -303 25 6 c27 5 82 15 115 21 85 14 189 34 192 38 6 6 12 67 18 186 2
52 5 97 6 100 4 17 0 130 -6 139 -3 6 -1 11 5 11 6 0 9 4 5 10 -3 5 -8 49 -10
97 -3 48 -7 103 -10 121 -3 18 -7 52 -10 75 -13 107 -63 297 -102 387 -63 146
-111 208 -176 229 -41 14 -108 10 -170 -9 -22 -6 -41 -9 -44 -6 -3 3 -6 186
-6 406 0 355 -3 420 -18 406z"/>
<path d="M467 3124 c-3 -3 -49 -7 -103 -9 -93 -3 -148 -9 -219 -22 -16 -3 -36
-6 -42 -6 -14 0 -15 -3 -15 -62 -1 -44 11 -221 18 -270 16 -122 21 -326 10
-415 -11 -85 -44 -197 -80 -270 l-32 -66 30 -2 c63 -4 96 -41 91 -102 -3 -30
-16 -241 -20 -325 -2 -33 -6 -100 -10 -150 -6 -92 -9 -132 -20 -337 -6 -110
-6 -118 12 -119 10 0 27 -2 38 -5 49 -10 118 -15 220 -14 114 1 131 2 231 15
32 4 70 9 84 10 14 2 41 6 60 10 19 4 41 8 48 9 29 5 51 37 63 93 7 32 13 60
14 63 6 23 27 122 31 146 3 16 9 44 14 61 4 18 5 35 2 37 -4 2 -90 4 -192 4
-102 0 -194 1 -206 1 -18 1 -20 7 -18 51 2 28 6 55 9 60 3 6 1 10 -5 10 -6 0
-9 4 -5 9 3 6 8 63 10 128 10 242 15 326 18 330 2 1 39 5 83 8 249 17 279 33
277 154 -1 36 -4 80 -7 96 -5 25 -12 75 -15 107 -1 4 -8 14 -17 22 -13 13 -43
16 -177 16 l-162 0 1 170 c1 94 4 173 7 176 3 3 50 7 104 8 177 5 200 31 190
210 -4 56 -7 102 -7 103 0 1 -11 14 -25 28 -16 16 -38 25 -58 26 -95 2 -203 9
-213 13 -7 3 -14 2 -17 0z"/>
<path d="M4538 2419 c-43 -14 -78 -25 -78 -23 0 2 -16 -4 -35 -12 -19 -8 -35
-11 -35 -7 0 4 -5 2 -12 -5 -7 -7 -22 -12 -34 -12 -20 0 -21 -4 -22 -97 0 -54
-1 -102 -2 -108 -1 -5 -1 -12 0 -15 6 -17 4 -350 -3 -350 -5 0 -5 -5 -2 -11 9
-13 10 -572 2 -586 -4 -6 -4 -13 0 -17 4 -3 6 -53 5 -110 l-1 -103 72 3 c224
10 242 13 253 47 4 12 8 163 10 337 4 402 9 476 36 519 45 73 118 -40 124
-194 2 -62 9 -213 20 -445 4 -74 7 -173 8 -220 1 -83 2 -85 26 -85 14 -1 50 5
80 11 30 7 72 15 93 18 56 9 103 31 121 58 32 50 39 451 11 673 -5 40 -25 161
-29 180 -1 6 -6 26 -10 45 -28 127 -59 214 -124 340 -63 124 -118 173 -181
163 -42 -6 -97 -51 -134 -111 -43 -67 -47 -62 -47 47 0 116 8 111 -112 70z"/>
<path d="M7548 2406 c-84 -22 -190 -110 -244 -201 -58 -100 -112 -268 -130
-405 -7 -61 -7 -222 1 -260 2 -13 7 -42 11 -65 16 -109 79 -286 129 -362 33
-50 124 -132 148 -134 7 0 19 -2 27 -4 54 -13 69 -16 101 -16 106 -3 230 72
280 169 8 15 16 29 19 32 10 9 58 124 66 155 4 17 11 36 17 43 5 6 7 12 5 12
-3 0 1 30 7 66 20 106 16 420 -7 534 -64 314 -234 486 -430 436z m90 -561 c89
-75 81 -331 -13 -373 -40 -18 -61 -15 -99 18 -50 44 -64 130 -42 255 2 11 4
28 5 39 2 28 65 86 94 86 14 0 39 -11 55 -25z"/>
<path d="M3575 2393 c-62 -18 -94 -48 -100 -93 -10 -73 -20 -242 -16 -275 1
-5 30 -10 65 -11 80 -1 127 -23 157 -71 39 -63 37 -67 -49 -92 -307 -90 -471
-381 -383 -678 73 -245 270 -306 469 -146 25 21 57 49 69 62 13 13 23 22 24
20 0 -2 2 -13 4 -25 3 -11 6 -45 8 -75 5 -63 7 -64 132 -30 22 6 43 11 47 11
4 0 26 7 48 15 22 8 40 12 40 11 0 -2 21 4 48 14 42 16 47 21 45 47 -1 15 -4
87 -8 158 -11 203 -14 257 -19 305 -3 25 -8 73 -10 107 -14 176 -108 434 -219
598 -44 66 -52 73 -114 111 -45 27 -68 34 -129 38 -23 2 -46 6 -50 8 -5 3 -31
-1 -59 -9z m211 -770 c2 -21 6 -69 8 -108 3 -38 8 -90 11 -115 2 -26 -1 -55
-8 -70 -11 -21 -19 -25 -52 -22 -144 11 -141 244 4 345 30 20 33 18 37 -30z"/>
<path d="M5740 2375 c-133 -32 -231 -125 -312 -295 -70 -146 -95 -267 -95
-461 -1 -284 53 -458 182 -592 133 -138 341 -146 434 -17 28 38 29 45 30 150
l0 110 -41 0 c-100 0 -165 44 -218 150 -17 33 -30 61 -29 62 1 2 -4 23 -11 47
-15 55 -15 181 -1 243 30 131 87 216 146 219 14 1 33 2 43 2 9 0 27 -3 40 -7
13 -4 25 -6 28 -4 5 6 44 204 51 261 7 62 -10 101 -52 122 -42 19 -136 24
-195 10z"/>
</g>
</svg>
